<?xml version="1.0" encoding="utf-8"?>
<svg viewBox="0 0 70 70" xmlns="http://www.w3.org/2000/svg">
  <defs>
    <linearGradient gradientUnits="userSpaceOnUse" x1="285" y1="230" x2="285" y2="300" id="gradient-3" gradientTransform="matrix(0.699715, -0.714422, 0.714287, 0.664778, -353.704805, 58.108268)">
      <stop offset="0" style="stop-color: rgba(67, 153, 251, 1)"/>
      <stop offset="1" style="stop-color: rgba(5, 101, 212, 1)"/>
    </linearGradient>
  </defs>
  <path d="M 10 0 L 20 0 C 20 5.523 24.477 10 30 10 L 32.885 10 C 32.858 10.524 32.814 11.183 32.753 11.429 C 32.65 11.846 32.573 12.02 32.333 12.404 C 31.834 13.199 31.25 13.724 30.141 14.451 C 27.833 15.962 24.636 17.088 21.155 18.334 C 17.674 19.581 13.86 20.97 11.172 22.903 C 9.767 23.912 8.312 25.445 7.581 27.01 C 6.848 28.581 6.681 30.905 7.084 32.949 C 7.745 34.997 9.281 37.038 10.968 37.961 C 12.561 38.833 14.797 39.315 16.849 39.458 C 20.822 39.736 25.779 39.107 30.434 38.56 C 35.088 38.013 39.392 37.547 42.71 37.945 C 44.297 38.135 45.178 38.386 45.996 38.934 C 46.753 39.441 46.74 39.647 47.057 40.581 C 47.711 43.017 47.096 44.508 45.846 46.513 C 44.576 48.55 42.679 50.383 40.513 52.506 C 36.279 56.658 31.647 62.189 32.207 70 L 30 70 C 24.477 70 20 65.523 20 60 L 10 60 C 4.477 60 0 55.523 0 50 L 0 10 C 0 4.477 4.477 0 10 0 Z M 50 0 L 60 0 C 65.523 0 70 4.477 70 10 L 70 50 C 70 55.523 65.523 60 60 60 L 50 60 C 50 65.523 45.523 70 40 70 L 38.007 70 C 36.367 64.554 40.412 61.009 44.714 56.79 C 46.865 54.681 49.283 52.341 50.937 49.687 C 52.612 47.001 53.532 43.284 52.943 39.419 C 52.375 37.23 50.972 35.045 49.335 33.948 C 47.758 32.893 45.491 32.235 43.424 31.988 C 39.436 31.51 34.416 32.051 29.733 32.601 C 25.051 33.151 20.657 33.71 17.267 33.473 C 15.638 33.359 14.674 33.186 13.847 32.697 C 13.135 32.276 13.136 32.283 12.916 31.539 C 12.887 31.451 12.861 31.369 12.839 31.292 C 12.6 30.471 12.722 30.181 13.018 29.548 C 13.344 28.85 13.72 28.46 14.674 27.775 C 16.702 26.317 19.711 25.225 23.178 23.983 C 26.645 22.742 30.521 21.374 33.428 19.47 C 34.926 18.49 36.484 17.078 37.417 15.59 C 38.362 14.082 40 10 40 10 C 45.523 10 50 5.523 50 0 Z" style="fill: url(#gradient-3);"/>
</svg>
