<?xml version="1.0" encoding="utf-8"?>
<svg viewBox="199 -1 172 102" xmlns="http://www.w3.org/2000/svg">
  <defs>
    <linearGradient id="node-fill">
      <title>node-fill</title>
      <stop style="stop-color: rgb(216, 216, 216)"/>
    </linearGradient>
    <linearGradient id="node-border">
      <title>node-border</title>
      <stop style="stop-color: rgb(160, 160, 160)"/>
    </linearGradient>
    <filter id="filter-4" x="-500%" y="-500%" width="1000%" height="1000%">
      <feOffset dx="0" dy="0"/>
      <feGaussianBlur stdDeviation="3"/>
      <feComposite operator="out" in="SourceGraphic"/>
      <feComponentTransfer result="choke">
        <feFuncA type="linear" slope="0.9"/>
      </feComponentTransfer>
      <feFlood flood-color="rgba(0,0,0,0.7)" result="color"/>
      <feComposite operator="in" in="color" in2="choke" result="shadow"/>
      <feComposite operator="over" in="shadow" in2="SourceGraphic"/>
    </filter>
    <filter id="filter-5" x="-500%" y="-500%" width="1000%" height="1000%">
      <feOffset dx="0" dy="0"/>
      <feGaussianBlur stdDeviation="3"/>
      <feComposite operator="out" in="SourceGraphic"/>
      <feComponentTransfer result="choke">
        <feFuncA type="linear" slope="0.9"/>
      </feComponentTransfer>
      <feFlood flood-color="rgba(0,0,0,0.7)" result="color"/>
      <feComposite operator="in" in="color" in2="choke" result="shadow"/>
      <feComposite operator="over" in="shadow" in2="SourceGraphic"/>
    </filter>
    <linearGradient id="handler-border">
      <title>handler-border</title>
      <stop style="stop-color: rgb(130, 188, 120)"/>
    </linearGradient>
  </defs>
  <path d="M 1332.055 204 H 1393.055 L 1392.055 202 L 1397.055 205 L 1392.055 208 L 1393.055 206 H 1332.055 V 204 Z" style="" transform="matrix(0.000009, 1, -1, 0.000009, 533.606506, -1311.598145)"/>
  <path d="M 310.974 25.458 L 320.384 25.458 C 320.384 26.758 321.437 27.811 322.737 27.811 L 334.502 27.811 C 335.8 27.811 336.854 26.758 336.854 25.458 L 346.264 25.458 C 347.565 25.458 348.619 26.512 348.619 27.813 L 348.619 44.28 C 348.619 45.58 347.565 46.634 346.264 46.634 L 336.854 46.634 C 336.854 47.934 335.8 48.988 334.502 48.988 L 322.737 48.988 C 321.437 48.988 320.384 47.934 320.384 46.634 L 310.974 46.634 C 309.673 46.634 308.619 45.58 308.619 44.28 L 308.619 27.813 C 308.619 26.512 309.673 25.458 310.974 25.458 Z" style="fill: url(#node-fill); stroke: url(#node-border); filter: url(#filter-4);"/>
  <path d="M 310.974 53.458 L 320.384 53.458 C 320.384 54.758 321.437 55.811 322.737 55.811 L 334.502 55.811 C 335.8 55.811 336.854 54.758 336.854 53.458 L 346.264 53.458 C 347.565 53.458 348.619 54.512 348.619 55.813 L 348.619 72.28 C 348.619 73.58 347.565 74.634 346.264 74.634 L 336.854 74.634 C 336.854 75.934 335.8 76.987 334.502 76.987 L 322.737 76.987 C 321.437 76.987 320.384 75.934 320.384 74.634 L 310.974 74.634 C 309.673 74.634 308.619 73.58 308.619 72.28 L 308.619 55.813 C 308.619 54.512 309.673 53.458 310.974 53.458 Z" style="fill: url(#node-fill); stroke: url(#node-border); filter: url(#filter-5);"/>
  <path d="M 209.92 56.545 C 208.46 56.545 207.34 56.212 206.56 55.545 C 205.773 54.885 205.38 54.042 205.38 53.015 C 205.38 52.322 205.55 51.702 205.89 51.155 C 206.223 50.602 206.683 50.135 207.27 49.755 C 207.857 49.368 208.543 49.075 209.33 48.875 C 210.117 48.668 210.947 48.565 211.82 48.565 C 212.14 48.565 212.463 48.568 212.79 48.575 C 213.117 48.588 213.46 48.608 213.82 48.635 C 214.187 48.662 214.567 48.702 214.96 48.755 L 215.01 50.295 C 214.677 50.242 214.337 50.202 213.99 50.175 C 213.643 50.148 213.303 50.125 212.97 50.105 C 212.637 50.085 212.31 50.075 211.99 50.075 C 211.317 50.075 210.7 50.132 210.14 50.245 C 209.58 50.358 209.097 50.525 208.69 50.745 C 208.277 50.972 207.957 51.262 207.73 51.615 C 207.51 51.968 207.4 52.398 207.4 52.905 C 207.4 53.298 207.47 53.628 207.61 53.895 C 207.75 54.168 207.94 54.385 208.18 54.545 C 208.427 54.698 208.713 54.815 209.04 54.895 C 209.367 54.968 209.723 55.005 210.11 55.005 C 210.843 55.005 211.493 54.888 212.06 54.655 C 212.627 54.422 213.113 54.082 213.52 53.635 C 213.92 53.182 214.223 52.628 214.43 51.975 C 214.63 51.322 214.73 50.575 214.73 49.735 C 214.73 48.468 214.583 47.482 214.29 46.775 C 213.99 46.062 213.547 45.555 212.96 45.255 C 212.367 44.962 211.613 44.815 210.7 44.815 C 210.087 44.815 209.48 44.932 208.88 45.165 C 208.287 45.398 207.747 45.755 207.26 46.235 L 206.28 44.955 C 206.873 44.355 207.563 43.905 208.35 43.605 C 209.137 43.305 209.967 43.155 210.84 43.155 C 211.68 43.155 212.447 43.258 213.14 43.465 C 213.827 43.672 214.42 44.012 214.92 44.485 C 215.413 44.965 215.793 45.605 216.06 46.405 C 216.333 47.212 216.47 48.222 216.47 49.435 L 216.47 56.235 L 214.29 56.235 L 214.29 54.275 C 214.043 54.742 213.747 55.125 213.4 55.425 C 213.06 55.725 212.693 55.952 212.3 56.105 C 211.907 56.265 211.503 56.378 211.09 56.445 C 210.683 56.512 210.293 56.545 209.92 56.545 ZM 222.85 56.265 L 221.03 56.265 L 218.46 43.435 L 220.22 43.435 L 222.29 53.715 L 224.48 44.645 L 225.71 44.645 L 228.43 53.685 C 228.67 52.025 228.87 50.662 229.03 49.595 C 229.19 48.535 229.31 47.665 229.39 46.985 C 229.477 46.298 229.533 45.722 229.56 45.255 C 229.587 44.788 229.6 44.322 229.6 43.855 L 229.6 43.435 L 231.48 43.435 C 231.293 44.875 231.093 46.308 230.88 47.735 C 230.66 49.162 230.427 50.585 230.18 52.005 C 229.927 53.425 229.65 54.845 229.35 56.265 L 227.45 56.265 L 225.09 47.975 L 222.85 56.265 ZM 237.92 56.545 C 236.46 56.545 235.34 56.212 234.56 55.545 C 233.773 54.885 233.38 54.042 233.38 53.015 C 233.38 52.322 233.55 51.702 233.89 51.155 C 234.223 50.602 234.683 50.135 235.27 49.755 C 235.857 49.368 236.543 49.075 237.33 48.875 C 238.117 48.668 238.947 48.565 239.82 48.565 C 240.14 48.565 240.463 48.568 240.79 48.575 C 241.117 48.588 241.46 48.608 241.82 48.635 C 242.187 48.662 242.567 48.702 242.96 48.755 L 243.01 50.295 C 242.677 50.242 242.337 50.202 241.99 50.175 C 241.643 50.148 241.303 50.125 240.97 50.105 C 240.637 50.085 240.31 50.075 239.99 50.075 C 239.317 50.075 238.7 50.132 238.14 50.245 C 237.58 50.358 237.097 50.525 236.69 50.745 C 236.277 50.972 235.957 51.262 235.73 51.615 C 235.51 51.968 235.4 52.398 235.4 52.905 C 235.4 53.298 235.47 53.628 235.61 53.895 C 235.75 54.168 235.94 54.385 236.18 54.545 C 236.427 54.698 236.713 54.815 237.04 54.895 C 237.367 54.968 237.723 55.005 238.11 55.005 C 238.843 55.005 239.493 54.888 240.06 54.655 C 240.627 54.422 241.113 54.082 241.52 53.635 C 241.92 53.182 242.223 52.628 242.43 51.975 C 242.63 51.322 242.73 50.575 242.73 49.735 C 242.73 48.468 242.583 47.482 242.29 46.775 C 241.99 46.062 241.547 45.555 240.96 45.255 C 240.367 44.962 239.613 44.815 238.7 44.815 C 238.087 44.815 237.48 44.932 236.88 45.165 C 236.287 45.398 235.747 45.755 235.26 46.235 L 234.28 44.955 C 234.873 44.355 235.563 43.905 236.35 43.605 C 237.137 43.305 237.967 43.155 238.84 43.155 C 239.68 43.155 240.447 43.258 241.14 43.465 C 241.827 43.672 242.42 44.012 242.92 44.485 C 243.413 44.965 243.793 45.605 244.06 46.405 C 244.333 47.212 244.47 48.222 244.47 49.435 L 244.47 56.235 L 242.29 56.235 L 242.29 54.275 C 242.043 54.742 241.747 55.125 241.4 55.425 C 241.06 55.725 240.693 55.952 240.3 56.105 C 239.907 56.265 239.503 56.378 239.09 56.445 C 238.683 56.512 238.293 56.545 237.92 56.545 ZM 257.1 56.235 L 248.81 56.235 L 248.81 54.615 L 252.09 54.615 L 252.09 45.065 L 248.98 45.065 L 248.98 43.435 L 254.1 43.435 L 254.1 54.615 L 257.1 54.615 L 257.1 56.235 Z M 252.98 40.755 C 252.587 40.755 252.25 40.615 251.97 40.335 C 251.69 40.055 251.55 39.718 251.55 39.325 C 251.55 38.912 251.687 38.565 251.96 38.285 C 252.233 38.005 252.573 37.865 252.98 37.865 C 253.373 37.865 253.713 38.012 254 38.305 C 254.293 38.592 254.44 38.932 254.44 39.325 C 254.44 39.718 254.293 40.055 254 40.335 C 253.713 40.615 253.373 40.755 252.98 40.755 ZM 268.38 56.435 C 267.56 56.435 266.89 56.295 266.37 56.015 C 265.843 55.735 265.44 55.298 265.16 54.705 C 264.88 54.118 264.7 53.378 264.62 52.485 C 264.533 51.585 264.51 50.522 264.55 49.295 L 264.88 40.165 L 266.98 39.915 L 267.26 39.885 L 267.29 40.075 C 267.197 40.208 267.117 40.342 267.05 40.475 C 266.983 40.602 266.933 40.825 266.9 41.145 L 266.65 44.305 L 266.73 44.815 L 266.53 49.435 C 266.477 50.848 266.517 51.945 266.65 52.725 C 266.777 53.498 267.01 54.028 267.35 54.315 C 267.683 54.608 268.13 54.755 268.69 54.755 C 269.303 54.755 269.85 54.632 270.33 54.385 C 270.803 54.145 271.303 53.838 271.83 53.465 L 272.44 55.055 C 271.807 55.522 271.153 55.868 270.48 56.095 C 269.807 56.322 269.107 56.435 268.38 56.435 Z M 261.97 45.095 L 261.97 43.435 L 271.18 43.435 L 271.18 45.095 L 261.97 45.095 Z" transform="matrix(1, 0, 0, 1, 0, 0)" style="fill: rgb(90, 142, 255); white-space: pre;"/>
  <path d="M 1341.15 363.583 L 1342.67 363.583 C 1342.477 364.343 1342.317 364.95 1342.19 365.403 C 1342.063 365.856 1341.947 366.24 1341.84 366.553 C 1341.727 366.86 1341.617 367.156 1341.51 367.443 C 1341.403 367.73 1341.28 368.076 1341.14 368.483 L 1340.23 368.483 C 1340.29 368.076 1340.337 367.73 1340.37 367.443 C 1340.403 367.156 1340.443 366.863 1340.49 366.563 C 1340.53 366.256 1340.603 365.873 1340.71 365.413 C 1340.81 364.953 1340.957 364.343 1341.15 363.583 Z M 1344 363.583 L 1345.52 363.583 C 1345.327 364.343 1345.167 364.95 1345.04 365.403 C 1344.913 365.856 1344.797 366.24 1344.69 366.553 C 1344.577 366.86 1344.467 367.156 1344.36 367.443 C 1344.253 367.73 1344.13 368.076 1343.99 368.483 L 1343.08 368.483 C 1343.14 368.076 1343.187 367.73 1343.22 367.443 C 1343.253 367.156 1343.293 366.863 1343.34 366.563 C 1343.38 366.256 1343.453 365.873 1343.56 365.413 C 1343.66 364.953 1343.807 364.343 1344 363.583 ZM 1352.59 376.213 L 1346.47 376.213 L 1346.75 375.093 L 1349.09 375.093 L 1351.48 365.493 L 1349.27 365.493 L 1349.55 364.373 L 1355.42 364.373 L 1355.14 365.493 L 1352.81 365.493 L 1350.41 375.113 L 1352.86 375.113 L 1352.59 376.213 ZM 1357.13 376.213 L 1355.8 376.213 L 1357.96 367.533 L 1359.29 367.533 L 1358.91 369.073 C 1359.223 368.713 1359.567 368.403 1359.94 368.143 C 1360.307 367.883 1360.693 367.683 1361.1 367.543 C 1361.5 367.396 1361.897 367.323 1362.29 367.323 C 1362.77 367.323 1363.17 367.443 1363.49 367.683 C 1363.81 367.923 1364.02 368.31 1364.12 368.843 C 1364.213 369.376 1364.15 370.08 1363.93 370.953 L 1362.62 376.213 L 1361.29 376.213 L 1362.59 370.993 C 1362.743 370.38 1362.797 369.893 1362.75 369.533 C 1362.697 369.173 1362.57 368.913 1362.37 368.753 C 1362.17 368.6 1361.917 368.523 1361.61 368.523 C 1361.317 368.523 1361.007 368.586 1360.68 368.713 C 1360.353 368.84 1360.033 369.02 1359.72 369.253 C 1359.407 369.486 1359.13 369.766 1358.89 370.093 C 1358.65 370.426 1358.477 370.8 1358.37 371.213 L 1357.13 376.213 ZM 1365.68 379.383 L 1364.28 379.383 L 1367.23 367.533 L 1368.62 367.533 L 1368.2 369.243 C 1368.447 368.796 1368.733 368.433 1369.06 368.153 C 1369.393 367.88 1369.75 367.676 1370.13 367.543 C 1370.51 367.41 1370.903 367.343 1371.31 367.343 C 1371.79 367.343 1372.227 367.433 1372.62 367.613 C 1373.013 367.8 1373.33 368.076 1373.57 368.443 C 1373.817 368.81 1373.967 369.273 1374.02 369.833 C 1374.08 370.386 1374.017 371.043 1373.83 371.803 C 1373.637 372.563 1373.363 373.236 1373.01 373.823 C 1372.657 374.403 1372.257 374.886 1371.81 375.273 C 1371.37 375.66 1370.907 375.95 1370.42 376.143 C 1369.933 376.343 1369.46 376.443 1369 376.443 C 1368.66 376.443 1368.343 376.39 1368.05 376.283 C 1367.75 376.17 1367.493 376.01 1367.28 375.803 C 1367.067 375.596 1366.893 375.353 1366.76 375.073 L 1365.68 379.383 Z M 1369.08 375.223 C 1369.38 375.223 1369.69 375.17 1370.01 375.063 C 1370.33 374.956 1370.64 374.776 1370.94 374.523 C 1371.247 374.27 1371.523 373.923 1371.77 373.483 C 1372.023 373.05 1372.23 372.51 1372.39 371.863 C 1372.563 371.163 1372.62 370.57 1372.56 370.083 C 1372.507 369.596 1372.347 369.22 1372.08 368.953 C 1371.807 368.686 1371.433 368.543 1370.96 368.523 C 1370.613 368.496 1370.267 368.546 1369.92 368.673 C 1369.58 368.8 1369.253 369.006 1368.94 369.293 C 1368.627 369.586 1368.343 369.97 1368.09 370.443 C 1367.843 370.923 1367.637 371.496 1367.47 372.163 C 1367.377 372.57 1367.327 372.94 1367.32 373.273 C 1367.32 373.6 1367.357 373.886 1367.43 374.133 C 1367.51 374.38 1367.623 374.583 1367.77 374.743 C 1367.923 374.903 1368.11 375.023 1368.33 375.103 C 1368.55 375.183 1368.8 375.223 1369.08 375.223 ZM 1377.58 376.423 C 1377.233 376.423 1376.923 376.373 1376.65 376.273 C 1376.37 376.166 1376.133 376.01 1375.94 375.803 C 1375.74 375.596 1375.593 375.333 1375.5 375.013 C 1375.4 374.7 1375.357 374.32 1375.37 373.873 C 1375.383 373.433 1375.46 372.933 1375.6 372.373 L 1376.83 367.533 L 1378.16 367.533 L 1376.95 372.373 C 1376.817 372.92 1376.753 373.383 1376.76 373.763 C 1376.767 374.143 1376.833 374.446 1376.96 374.673 C 1377.087 374.9 1377.257 375.066 1377.47 375.173 C 1377.683 375.273 1377.923 375.323 1378.19 375.323 C 1378.497 375.323 1378.803 375.263 1379.11 375.143 C 1379.423 375.023 1379.72 374.843 1380 374.603 C 1380.28 374.356 1380.53 374.043 1380.75 373.663 C 1380.97 373.283 1381.147 372.833 1381.28 372.313 L 1382.47 367.533 L 1383.8 367.533 L 1381.97 374.863 C 1381.917 375.09 1381.87 375.316 1381.83 375.543 C 1381.797 375.763 1381.797 375.986 1381.83 376.213 L 1380.52 376.213 C 1380.493 376.06 1380.487 375.91 1380.5 375.763 C 1380.507 375.616 1380.527 375.47 1380.56 375.323 C 1380.593 375.17 1380.627 375.023 1380.66 374.883 C 1380.46 375.123 1380.24 375.34 1380 375.533 C 1379.767 375.72 1379.517 375.88 1379.25 376.013 C 1378.983 376.146 1378.71 376.246 1378.43 376.313 C 1378.15 376.386 1377.867 376.423 1377.58 376.423 ZM 1388.58 376.343 C 1388.02 376.343 1387.587 376.25 1387.28 376.063 C 1386.973 375.87 1386.773 375.573 1386.68 375.173 C 1386.593 374.78 1386.597 374.276 1386.69 373.663 C 1386.783 373.056 1386.947 372.336 1387.18 371.503 L 1388.96 365.303 L 1390.42 365.133 L 1390.62 365.113 L 1390.6 365.253 C 1390.52 365.34 1390.447 365.426 1390.38 365.513 C 1390.313 365.606 1390.24 365.76 1390.16 365.973 L 1389.45 368.123 L 1389.42 368.463 L 1388.51 371.593 C 1388.23 372.56 1388.07 373.306 1388.03 373.833 C 1387.983 374.353 1388.05 374.713 1388.23 374.913 C 1388.41 375.106 1388.69 375.203 1389.07 375.203 C 1389.49 375.203 1389.88 375.123 1390.24 374.963 C 1390.607 374.796 1391 374.586 1391.42 374.333 L 1391.56 375.413 C 1391.053 375.733 1390.553 375.966 1390.06 376.113 C 1389.567 376.266 1389.073 376.343 1388.58 376.343 Z M 1386.15 368.653 L 1386.42 367.533 L 1392.68 367.533 L 1392.4 368.653 L 1386.15 368.653 ZM 1398.15 363.583 L 1399.67 363.583 C 1399.477 364.343 1399.317 364.95 1399.19 365.403 C 1399.063 365.856 1398.947 366.24 1398.84 366.553 C 1398.727 366.86 1398.617 367.156 1398.51 367.443 C 1398.403 367.73 1398.28 368.076 1398.14 368.483 L 1397.23 368.483 C 1397.29 368.076 1397.337 367.73 1397.37 367.443 C 1397.403 367.156 1397.443 366.863 1397.49 366.563 C 1397.53 366.256 1397.603 365.873 1397.71 365.413 C 1397.81 364.953 1397.957 364.343 1398.15 363.583 Z M 1401 363.583 L 1402.52 363.583 C 1402.327 364.343 1402.167 364.95 1402.04 365.403 C 1401.913 365.856 1401.797 366.24 1401.69 366.553 C 1401.577 366.86 1401.467 367.156 1401.36 367.443 C 1401.253 367.73 1401.13 368.076 1400.99 368.483 L 1400.08 368.483 C 1400.14 368.076 1400.187 367.73 1400.22 367.443 C 1400.253 367.156 1400.293 366.863 1400.34 366.563 C 1400.38 366.256 1400.453 365.873 1400.56 365.413 C 1400.66 364.953 1400.807 364.343 1401 363.583 Z" transform="matrix(1, 0, 0, 1, -1040.4124755859375, -359.4952392578125)" style="fill: url(#handler-border); white-space: pre;"/>
  <path d="M 1341.15 363.583 L 1342.67 363.583 C 1342.477 364.343 1342.317 364.95 1342.19 365.403 C 1342.063 365.856 1341.947 366.24 1341.84 366.553 C 1341.727 366.86 1341.617 367.156 1341.51 367.443 C 1341.403 367.73 1341.28 368.076 1341.14 368.483 L 1340.23 368.483 C 1340.29 368.076 1340.337 367.73 1340.37 367.443 C 1340.403 367.156 1340.443 366.863 1340.49 366.563 C 1340.53 366.256 1340.603 365.873 1340.71 365.413 C 1340.81 364.953 1340.957 364.343 1341.15 363.583 Z M 1344 363.583 L 1345.52 363.583 C 1345.327 364.343 1345.167 364.95 1345.04 365.403 C 1344.913 365.856 1344.797 366.24 1344.69 366.553 C 1344.577 366.86 1344.467 367.156 1344.36 367.443 C 1344.253 367.73 1344.13 368.076 1343.99 368.483 L 1343.08 368.483 C 1343.14 368.076 1343.187 367.73 1343.22 367.443 C 1343.253 367.156 1343.293 366.863 1343.34 366.563 C 1343.38 366.256 1343.453 365.873 1343.56 365.413 C 1343.66 364.953 1343.807 364.343 1344 363.583 ZM 1349.64 376.363 C 1348.853 376.363 1348.21 376.17 1347.71 375.783 C 1347.203 375.396 1346.863 374.866 1346.69 374.193 C 1346.517 373.513 1346.54 372.736 1346.76 371.863 C 1346.98 370.976 1347.343 370.193 1347.85 369.513 C 1348.363 368.84 1348.97 368.31 1349.67 367.923 C 1350.363 367.536 1351.103 367.343 1351.89 367.343 C 1352.677 367.343 1353.323 367.536 1353.83 367.923 C 1354.337 368.31 1354.677 368.84 1354.85 369.513 C 1355.023 370.193 1354.997 370.976 1354.77 371.863 C 1354.557 372.736 1354.193 373.513 1353.68 374.193 C 1353.167 374.866 1352.563 375.396 1351.87 375.783 C 1351.17 376.17 1350.427 376.363 1349.64 376.363 Z M 1349.93 375.223 C 1350.437 375.223 1350.917 375.076 1351.37 374.783 C 1351.817 374.496 1352.217 374.1 1352.57 373.593 C 1352.917 373.086 1353.17 372.503 1353.33 371.843 C 1353.497 371.183 1353.533 370.6 1353.44 370.093 C 1353.34 369.586 1353.137 369.19 1352.83 368.903 C 1352.523 368.623 1352.117 368.483 1351.61 368.483 C 1351.117 368.483 1350.64 368.623 1350.18 368.903 C 1349.72 369.19 1349.317 369.586 1348.97 370.093 C 1348.623 370.6 1348.367 371.183 1348.2 371.843 C 1348.04 372.503 1348.007 373.086 1348.1 373.593 C 1348.193 374.1 1348.397 374.496 1348.71 374.783 C 1349.03 375.076 1349.437 375.223 1349.93 375.223 ZM 1358.58 376.423 C 1358.233 376.423 1357.923 376.373 1357.65 376.273 C 1357.37 376.166 1357.133 376.01 1356.94 375.803 C 1356.74 375.596 1356.593 375.333 1356.5 375.013 C 1356.4 374.7 1356.357 374.32 1356.37 373.873 C 1356.383 373.433 1356.46 372.933 1356.6 372.373 L 1357.83 367.533 L 1359.16 367.533 L 1357.95 372.373 C 1357.817 372.92 1357.753 373.383 1357.76 373.763 C 1357.767 374.143 1357.833 374.446 1357.96 374.673 C 1358.087 374.9 1358.257 375.066 1358.47 375.173 C 1358.683 375.273 1358.923 375.323 1359.19 375.323 C 1359.497 375.323 1359.803 375.263 1360.11 375.143 C 1360.423 375.023 1360.72 374.843 1361 374.603 C 1361.28 374.356 1361.53 374.043 1361.75 373.663 C 1361.97 373.283 1362.147 372.833 1362.28 372.313 L 1363.47 367.533 L 1364.8 367.533 L 1362.97 374.863 C 1362.917 375.09 1362.87 375.316 1362.83 375.543 C 1362.797 375.763 1362.797 375.986 1362.83 376.213 L 1361.52 376.213 C 1361.493 376.06 1361.487 375.91 1361.5 375.763 C 1361.507 375.616 1361.527 375.47 1361.56 375.323 C 1361.593 375.17 1361.627 375.023 1361.66 374.883 C 1361.46 375.123 1361.24 375.34 1361 375.533 C 1360.767 375.72 1360.517 375.88 1360.25 376.013 C 1359.983 376.146 1359.71 376.246 1359.43 376.313 C 1359.15 376.386 1358.867 376.423 1358.58 376.423 ZM 1369.58 376.343 C 1369.02 376.343 1368.587 376.25 1368.28 376.063 C 1367.973 375.87 1367.773 375.573 1367.68 375.173 C 1367.593 374.78 1367.597 374.276 1367.69 373.663 C 1367.783 373.056 1367.947 372.336 1368.18 371.503 L 1369.96 365.303 L 1371.42 365.133 L 1371.62 365.113 L 1371.6 365.253 C 1371.52 365.34 1371.447 365.426 1371.38 365.513 C 1371.313 365.606 1371.24 365.76 1371.16 365.973 L 1370.45 368.123 L 1370.42 368.463 L 1369.51 371.593 C 1369.23 372.56 1369.07 373.306 1369.03 373.833 C 1368.983 374.353 1369.05 374.713 1369.23 374.913 C 1369.41 375.106 1369.69 375.203 1370.07 375.203 C 1370.49 375.203 1370.88 375.123 1371.24 374.963 C 1371.607 374.796 1372 374.586 1372.42 374.333 L 1372.56 375.413 C 1372.053 375.733 1371.553 375.966 1371.06 376.113 C 1370.567 376.266 1370.073 376.343 1369.58 376.343 Z M 1367.15 368.653 L 1367.42 367.533 L 1373.68 367.533 L 1373.4 368.653 L 1367.15 368.653 ZM 1375.18 379.383 L 1373.78 379.383 L 1376.73 367.533 L 1378.12 367.533 L 1377.7 369.243 C 1377.947 368.796 1378.233 368.433 1378.56 368.153 C 1378.893 367.88 1379.25 367.676 1379.63 367.543 C 1380.01 367.41 1380.403 367.343 1380.81 367.343 C 1381.29 367.343 1381.727 367.433 1382.12 367.613 C 1382.513 367.8 1382.83 368.076 1383.07 368.443 C 1383.317 368.81 1383.467 369.273 1383.52 369.833 C 1383.58 370.386 1383.517 371.043 1383.33 371.803 C 1383.137 372.563 1382.863 373.236 1382.51 373.823 C 1382.157 374.403 1381.757 374.886 1381.31 375.273 C 1380.87 375.66 1380.407 375.95 1379.92 376.143 C 1379.433 376.343 1378.96 376.443 1378.5 376.443 C 1378.16 376.443 1377.843 376.39 1377.55 376.283 C 1377.25 376.17 1376.993 376.01 1376.78 375.803 C 1376.567 375.596 1376.393 375.353 1376.26 375.073 L 1375.18 379.383 Z M 1378.58 375.223 C 1378.88 375.223 1379.19 375.17 1379.51 375.063 C 1379.83 374.956 1380.14 374.776 1380.44 374.523 C 1380.747 374.27 1381.023 373.923 1381.27 373.483 C 1381.523 373.05 1381.73 372.51 1381.89 371.863 C 1382.063 371.163 1382.12 370.57 1382.06 370.083 C 1382.007 369.596 1381.847 369.22 1381.58 368.953 C 1381.307 368.686 1380.933 368.543 1380.46 368.523 C 1380.113 368.496 1379.767 368.546 1379.42 368.673 C 1379.08 368.8 1378.753 369.006 1378.44 369.293 C 1378.127 369.586 1377.843 369.97 1377.59 370.443 C 1377.343 370.923 1377.137 371.496 1376.97 372.163 C 1376.877 372.57 1376.827 372.94 1376.82 373.273 C 1376.82 373.6 1376.857 373.886 1376.93 374.133 C 1377.01 374.38 1377.123 374.583 1377.27 374.743 C 1377.423 374.903 1377.61 375.023 1377.83 375.103 C 1378.05 375.183 1378.3 375.223 1378.58 375.223 ZM 1387.08 376.423 C 1386.733 376.423 1386.423 376.373 1386.15 376.273 C 1385.87 376.166 1385.633 376.01 1385.44 375.803 C 1385.24 375.596 1385.093 375.333 1385 375.013 C 1384.9 374.7 1384.857 374.32 1384.87 373.873 C 1384.883 373.433 1384.96 372.933 1385.1 372.373 L 1386.33 367.533 L 1387.66 367.533 L 1386.45 372.373 C 1386.317 372.92 1386.253 373.383 1386.26 373.763 C 1386.267 374.143 1386.333 374.446 1386.46 374.673 C 1386.587 374.9 1386.757 375.066 1386.97 375.173 C 1387.183 375.273 1387.423 375.323 1387.69 375.323 C 1387.997 375.323 1388.303 375.263 1388.61 375.143 C 1388.923 375.023 1389.22 374.843 1389.5 374.603 C 1389.78 374.356 1390.03 374.043 1390.25 373.663 C 1390.47 373.283 1390.647 372.833 1390.78 372.313 L 1391.97 367.533 L 1393.3 367.533 L 1391.47 374.863 C 1391.417 375.09 1391.37 375.316 1391.33 375.543 C 1391.297 375.763 1391.297 375.986 1391.33 376.213 L 1390.02 376.213 C 1389.993 376.06 1389.987 375.91 1390 375.763 C 1390.007 375.616 1390.027 375.47 1390.06 375.323 C 1390.093 375.17 1390.127 375.023 1390.16 374.883 C 1389.96 375.123 1389.74 375.34 1389.5 375.533 C 1389.267 375.72 1389.017 375.88 1388.75 376.013 C 1388.483 376.146 1388.21 376.246 1387.93 376.313 C 1387.65 376.386 1387.367 376.423 1387.08 376.423 ZM 1398.08 376.343 C 1397.52 376.343 1397.087 376.25 1396.78 376.063 C 1396.473 375.87 1396.273 375.573 1396.18 375.173 C 1396.093 374.78 1396.097 374.276 1396.19 373.663 C 1396.283 373.056 1396.447 372.336 1396.68 371.503 L 1398.46 365.303 L 1399.92 365.133 L 1400.12 365.113 L 1400.1 365.253 C 1400.02 365.34 1399.947 365.426 1399.88 365.513 C 1399.813 365.606 1399.74 365.76 1399.66 365.973 L 1398.95 368.123 L 1398.92 368.463 L 1398.01 371.593 C 1397.73 372.56 1397.57 373.306 1397.53 373.833 C 1397.483 374.353 1397.55 374.713 1397.73 374.913 C 1397.91 375.106 1398.19 375.203 1398.57 375.203 C 1398.99 375.203 1399.38 375.123 1399.74 374.963 C 1400.107 374.796 1400.5 374.586 1400.92 374.333 L 1401.06 375.413 C 1400.553 375.733 1400.053 375.966 1399.56 376.113 C 1399.067 376.266 1398.573 376.343 1398.08 376.343 Z M 1395.65 368.653 L 1395.92 367.533 L 1402.18 367.533 L 1401.9 368.653 L 1395.65 368.653 ZM 1407.65 363.583 L 1409.17 363.583 C 1408.977 364.343 1408.817 364.95 1408.69 365.403 C 1408.563 365.856 1408.447 366.24 1408.34 366.553 C 1408.227 366.86 1408.117 367.156 1408.01 367.443 C 1407.903 367.73 1407.78 368.076 1407.64 368.483 L 1406.73 368.483 C 1406.79 368.076 1406.837 367.73 1406.87 367.443 C 1406.903 367.156 1406.943 366.863 1406.99 366.563 C 1407.03 366.256 1407.103 365.873 1407.21 365.413 C 1407.31 364.953 1407.457 364.343 1407.65 363.583 Z M 1410.5 363.583 L 1412.02 363.583 C 1411.827 364.343 1411.667 364.95 1411.54 365.403 C 1411.413 365.856 1411.297 366.24 1411.19 366.553 C 1411.077 366.86 1410.967 367.156 1410.86 367.443 C 1410.753 367.73 1410.63 368.076 1410.49 368.483 L 1409.58 368.483 C 1409.64 368.076 1409.687 367.73 1409.72 367.443 C 1409.753 367.156 1409.793 366.863 1409.84 366.563 C 1409.88 366.256 1409.953 365.873 1410.06 365.413 C 1410.16 364.953 1410.307 364.343 1410.5 363.583 Z" transform="matrix(1, 0, 0, 1, -1045.1624755859375, -280.796875)" style="fill: url(#handler-border); white-space: pre;"/>
</svg>