<?xml version="1.0" encoding="utf-8"?>
<svg viewBox="389 -1 172 102" xmlns="http://www.w3.org/2000/svg">
  <defs>
    <linearGradient id="node-fill">
      <title>node-fill</title>
      <stop style="stop-color: rgb(216, 216, 216)"/>
    </linearGradient>
    <linearGradient id="node-border">
      <title>node-border</title>
      <stop style="stop-color: rgb(160, 160, 160)"/>
    </linearGradient>
    <filter id="filter-7" x="-500%" y="-500%" width="1000%" height="1000%">
      <feOffset dx="0" dy="0"/>
      <feGaussianBlur stdDeviation="3"/>
      <feComposite operator="out" in="SourceGraphic"/>
      <feComponentTransfer result="choke">
        <feFuncA type="linear" slope="0.9"/>
      </feComponentTransfer>
      <feFlood flood-color="rgba(0,0,0,0.7)" result="color"/>
      <feComposite operator="in" in="color" in2="choke" result="shadow"/>
      <feComposite operator="over" in="shadow" in2="SourceGraphic"/>
    </filter>
    <linearGradient id="handler-border">
      <title>handler-border</title>
      <stop style="stop-color: rgb(123, 198, 110);"/>
    </linearGradient>
    <linearGradient id="api-border">
      <title>api-stroke</title>
      <stop style="stop-color: rgb(194, 124, 191)"/>
    </linearGradient>
  </defs>
  <path d="M 400.008 0 L 440 0 C 440 5.523 444.477 10 450 10 L 500 10 C 505.523 10 510 5.523 510 0 L 549.992 0 C 555.519 0 560 4.481 560 10.008 L 560 79.992 C 560 85.519 555.519 90 549.992 90 L 510 90 C 510 95.523 505.523 100 500 100 L 450 100 C 444.477 100 440 95.523 440 90 L 400.008 90 C 394.481 90 390 85.519 390 79.992 L 390 10.008 C 390 4.481 394.481 0 400.008 0 Z" style="fill: url(#node-fill); stroke: url(#node-border); filter: url(#filter-7);"/>
  <path d="M 1255.64 375.021 L 1254.58 375.021 L 1251.14 366.341 L 1252.51 366.341 L 1255.32 373.461 L 1255.05 373.461 L 1256.59 369.931 C 1256.897 369.231 1257.14 368.584 1257.32 367.991 C 1257.507 367.398 1257.643 366.848 1257.73 366.341 L 1259.02 366.341 C 1258.92 366.874 1258.763 367.458 1258.55 368.091 C 1258.337 368.724 1258.07 369.408 1257.75 370.141 L 1255.64 375.021 ZM 1263.89 375.231 C 1262.903 375.231 1262.143 375.004 1261.61 374.551 C 1261.077 374.104 1260.81 373.531 1260.81 372.831 C 1260.81 372.364 1260.923 371.944 1261.15 371.571 C 1261.377 371.198 1261.69 370.881 1262.09 370.621 C 1262.49 370.361 1262.957 370.161 1263.49 370.021 C 1264.023 369.881 1264.587 369.811 1265.18 369.811 C 1265.393 369.811 1265.613 369.814 1265.84 369.821 C 1266.06 369.828 1266.293 369.841 1266.54 369.861 C 1266.787 369.881 1267.043 369.911 1267.31 369.951 L 1267.35 370.991 C 1267.123 370.958 1266.89 370.931 1266.65 370.911 C 1266.417 370.891 1266.187 370.874 1265.96 370.861 C 1265.733 370.848 1265.513 370.841 1265.3 370.841 C 1264.84 370.841 1264.42 370.878 1264.04 370.951 C 1263.66 371.031 1263.33 371.148 1263.05 371.301 C 1262.77 371.448 1262.557 371.644 1262.41 371.891 C 1262.257 372.131 1262.18 372.421 1262.18 372.761 C 1262.18 373.028 1262.227 373.251 1262.32 373.431 C 1262.413 373.618 1262.543 373.764 1262.71 373.871 C 1262.877 373.978 1263.07 374.058 1263.29 374.111 C 1263.51 374.158 1263.753 374.181 1264.02 374.181 C 1264.513 374.181 1264.953 374.104 1265.34 373.951 C 1265.727 373.791 1266.057 373.558 1266.33 373.251 C 1266.603 372.951 1266.81 372.578 1266.95 372.131 C 1267.09 371.691 1267.16 371.184 1267.16 370.611 C 1267.16 369.751 1267.057 369.081 1266.85 368.601 C 1266.65 368.121 1266.35 367.778 1265.95 367.571 C 1265.55 367.371 1265.04 367.271 1264.42 367.271 C 1264 367.271 1263.59 367.351 1263.19 367.511 C 1262.783 367.664 1262.413 367.908 1262.08 368.241 L 1261.42 367.361 C 1261.827 366.954 1262.293 366.651 1262.82 366.451 C 1263.353 366.251 1263.92 366.151 1264.52 366.151 C 1265.087 366.151 1265.603 366.221 1266.07 366.361 C 1266.543 366.494 1266.947 366.724 1267.28 367.051 C 1267.613 367.371 1267.873 367.804 1268.06 368.351 C 1268.247 368.898 1268.34 369.581 1268.34 370.401 L 1268.34 375.021 L 1266.85 375.021 L 1266.85 373.691 C 1266.69 374.011 1266.49 374.271 1266.25 374.471 C 1266.017 374.671 1265.767 374.824 1265.5 374.931 C 1265.233 375.044 1264.963 375.121 1264.69 375.161 C 1264.41 375.208 1264.143 375.231 1263.89 375.231 ZM 1277.38 375.021 L 1270.88 375.021 L 1270.88 373.921 L 1273.45 373.921 L 1273.45 363.491 L 1270.99 363.491 L 1270.99 362.391 L 1274.83 362.391 L 1274.83 373.921 L 1277.38 373.921 L 1277.38 375.021 ZM 1283.08 375.231 C 1282.74 375.231 1282.417 375.181 1282.11 375.081 C 1281.803 374.974 1281.527 374.818 1281.28 374.611 C 1281.033 374.404 1280.823 374.141 1280.65 373.821 C 1280.47 373.508 1280.333 373.128 1280.24 372.681 C 1280.147 372.241 1280.1 371.741 1280.1 371.181 L 1280.11 366.341 L 1281.44 366.341 L 1281.44 371.181 C 1281.44 371.728 1281.493 372.191 1281.6 372.571 C 1281.7 372.951 1281.84 373.254 1282.02 373.481 C 1282.207 373.708 1282.42 373.874 1282.66 373.981 C 1282.9 374.081 1283.153 374.131 1283.42 374.131 C 1283.727 374.131 1284.02 374.071 1284.3 373.951 C 1284.573 373.831 1284.823 373.651 1285.05 373.411 C 1285.27 373.164 1285.443 372.851 1285.57 372.471 C 1285.697 372.091 1285.76 371.641 1285.76 371.121 L 1285.76 366.341 L 1287.09 366.341 L 1287.09 373.671 C 1287.09 373.898 1287.1 374.124 1287.12 374.351 C 1287.14 374.571 1287.193 374.794 1287.28 375.021 L 1285.97 375.021 C 1285.903 374.868 1285.857 374.718 1285.83 374.571 C 1285.81 374.424 1285.797 374.278 1285.79 374.131 C 1285.783 373.978 1285.78 373.831 1285.78 373.691 C 1285.64 373.931 1285.473 374.148 1285.28 374.341 C 1285.093 374.528 1284.883 374.688 1284.65 374.821 C 1284.417 374.954 1284.17 375.054 1283.91 375.121 C 1283.65 375.194 1283.373 375.231 1283.08 375.231 ZM 1293.55 375.211 C 1292.917 375.211 1292.34 375.114 1291.82 374.921 C 1291.3 374.721 1290.853 374.431 1290.48 374.051 C 1290.107 373.671 1289.817 373.201 1289.61 372.641 C 1289.41 372.074 1289.31 371.431 1289.31 370.711 C 1289.31 369.971 1289.413 369.318 1289.62 368.751 C 1289.833 368.178 1290.12 367.701 1290.48 367.321 C 1290.84 366.934 1291.263 366.638 1291.75 366.431 C 1292.237 366.231 1292.753 366.131 1293.3 366.131 C 1293.793 366.131 1294.257 366.214 1294.69 366.381 C 1295.117 366.541 1295.49 366.791 1295.81 367.131 C 1296.123 367.464 1296.373 367.891 1296.56 368.411 C 1296.747 368.931 1296.84 369.544 1296.84 370.251 C 1296.84 370.351 1296.837 370.454 1296.83 370.561 C 1296.823 370.674 1296.813 370.781 1296.8 370.881 L 1290.62 370.881 C 1290.647 371.434 1290.743 371.918 1290.91 372.331 C 1291.07 372.744 1291.283 373.081 1291.55 373.341 C 1291.817 373.601 1292.123 373.794 1292.47 373.921 C 1292.823 374.048 1293.197 374.111 1293.59 374.111 C 1293.89 374.111 1294.173 374.074 1294.44 374.001 C 1294.707 373.934 1294.957 373.828 1295.19 373.681 C 1295.423 373.534 1295.637 373.354 1295.83 373.141 L 1296.59 373.881 C 1296.35 374.174 1296.073 374.421 1295.76 374.621 C 1295.453 374.821 1295.117 374.971 1294.75 375.071 C 1294.377 375.164 1293.977 375.211 1293.55 375.211 Z M 1290.68 369.811 L 1295.45 369.811 C 1295.45 369.411 1295.397 369.048 1295.29 368.721 C 1295.183 368.401 1295.03 368.124 1294.83 367.891 C 1294.637 367.651 1294.403 367.471 1294.13 367.351 C 1293.857 367.231 1293.55 367.171 1293.21 367.171 C 1292.903 367.171 1292.613 367.224 1292.34 367.331 C 1292.067 367.431 1291.817 367.591 1291.59 367.811 C 1291.363 368.031 1291.17 368.308 1291.01 368.641 C 1290.85 368.968 1290.74 369.358 1290.68 369.811 Z" transform="matrix(1, 0, 0, 1, -855.375, -340.921875)" style="fill: rgb(90, 142, 255); white-space: pre;"/>
  <path d="M 1255.15 394.211 C 1254.67 394.211 1254.21 394.161 1253.77 394.061 C 1253.337 393.961 1252.927 393.808 1252.54 393.601 C 1252.153 393.401 1251.793 393.148 1251.46 392.841 L 1252.22 391.551 L 1252.34 391.381 L 1252.45 391.461 C 1252.477 391.561 1252.507 391.664 1252.54 391.771 C 1252.567 391.878 1252.65 392.008 1252.79 392.161 C 1253.057 392.428 1253.377 392.644 1253.75 392.811 C 1254.123 392.984 1254.603 393.071 1255.19 393.071 C 1255.657 393.071 1256.05 393.014 1256.37 392.901 C 1256.697 392.788 1256.95 392.624 1257.13 392.411 C 1257.303 392.204 1257.39 391.961 1257.39 391.681 C 1257.39 391.494 1257.353 391.328 1257.28 391.181 C 1257.2 391.034 1257.077 390.898 1256.91 390.771 C 1256.737 390.644 1256.51 390.518 1256.23 390.391 C 1255.95 390.264 1255.61 390.138 1255.21 390.011 C 1254.55 389.824 1253.973 389.604 1253.48 389.351 C 1252.987 389.098 1252.607 388.801 1252.34 388.461 C 1252.073 388.128 1251.94 387.744 1251.94 387.311 C 1251.94 386.871 1252.06 386.488 1252.3 386.161 C 1252.54 385.841 1252.897 385.588 1253.37 385.401 C 1253.85 385.221 1254.437 385.131 1255.13 385.131 C 1255.537 385.131 1255.903 385.158 1256.23 385.211 C 1256.563 385.271 1256.867 385.358 1257.14 385.471 C 1257.42 385.584 1257.677 385.728 1257.91 385.901 C 1258.143 386.068 1258.37 386.268 1258.59 386.501 L 1257.81 387.451 L 1257.68 387.601 L 1257.58 387.501 C 1257.567 387.401 1257.54 387.304 1257.5 387.211 C 1257.453 387.118 1257.36 387.001 1257.22 386.861 C 1256.927 386.634 1256.597 386.458 1256.23 386.331 C 1255.863 386.211 1255.51 386.151 1255.17 386.151 C 1254.663 386.151 1254.227 386.241 1253.86 386.421 C 1253.493 386.601 1253.31 386.874 1253.31 387.241 C 1253.31 387.428 1253.377 387.614 1253.51 387.801 C 1253.637 387.981 1253.88 388.164 1254.24 388.351 C 1254.593 388.531 1255.1 388.718 1255.76 388.911 C 1256.48 389.138 1257.06 389.368 1257.5 389.601 C 1257.933 389.834 1258.25 390.104 1258.45 390.411 C 1258.643 390.718 1258.74 391.078 1258.74 391.491 C 1258.74 391.978 1258.61 392.428 1258.35 392.841 C 1258.09 393.261 1257.693 393.594 1257.16 393.841 C 1256.627 394.088 1255.957 394.211 1255.15 394.211 ZM 1265.56 394.151 C 1265 394.151 1264.543 394.058 1264.19 393.871 C 1263.837 393.678 1263.567 393.381 1263.38 392.981 C 1263.187 392.588 1263.063 392.084 1263.01 391.471 C 1262.95 390.864 1262.933 390.144 1262.96 389.311 L 1263.19 383.111 L 1264.61 382.941 L 1264.8 382.921 L 1264.82 383.061 C 1264.753 383.148 1264.7 383.234 1264.66 383.321 C 1264.613 383.414 1264.577 383.568 1264.55 383.781 L 1264.38 385.931 L 1264.44 386.271 L 1264.31 389.401 C 1264.27 390.368 1264.293 391.114 1264.38 391.641 C 1264.473 392.161 1264.633 392.521 1264.86 392.721 C 1265.087 392.914 1265.39 393.011 1265.77 393.011 C 1266.19 393.011 1266.56 392.931 1266.88 392.771 C 1267.207 392.604 1267.547 392.394 1267.9 392.141 L 1268.32 393.221 C 1267.887 393.541 1267.443 393.774 1266.99 393.921 C 1266.53 394.074 1266.053 394.151 1265.56 394.151 Z M 1261.21 386.461 L 1261.21 385.341 L 1267.46 385.341 L 1267.46 386.461 L 1261.21 386.461 ZM 1273.39 394.231 C 1272.403 394.231 1271.643 394.004 1271.11 393.551 C 1270.577 393.104 1270.31 392.531 1270.31 391.831 C 1270.31 391.364 1270.423 390.944 1270.65 390.571 C 1270.877 390.198 1271.19 389.881 1271.59 389.621 C 1271.99 389.361 1272.457 389.161 1272.99 389.021 C 1273.523 388.881 1274.087 388.811 1274.68 388.811 C 1274.893 388.811 1275.113 388.814 1275.34 388.821 C 1275.56 388.828 1275.793 388.841 1276.04 388.861 C 1276.287 388.881 1276.543 388.911 1276.81 388.951 L 1276.85 389.991 C 1276.623 389.958 1276.39 389.931 1276.15 389.911 C 1275.917 389.891 1275.687 389.874 1275.46 389.861 C 1275.233 389.848 1275.013 389.841 1274.8 389.841 C 1274.34 389.841 1273.92 389.878 1273.54 389.951 C 1273.16 390.031 1272.83 390.148 1272.55 390.301 C 1272.27 390.448 1272.057 390.644 1271.91 390.891 C 1271.757 391.131 1271.68 391.421 1271.68 391.761 C 1271.68 392.028 1271.727 392.251 1271.82 392.431 C 1271.913 392.618 1272.043 392.764 1272.21 392.871 C 1272.377 392.978 1272.57 393.058 1272.79 393.111 C 1273.01 393.158 1273.253 393.181 1273.52 393.181 C 1274.013 393.181 1274.453 393.104 1274.84 392.951 C 1275.227 392.791 1275.557 392.558 1275.83 392.251 C 1276.103 391.951 1276.31 391.578 1276.45 391.131 C 1276.59 390.691 1276.66 390.184 1276.66 389.611 C 1276.66 388.751 1276.557 388.081 1276.35 387.601 C 1276.15 387.121 1275.85 386.778 1275.45 386.571 C 1275.05 386.371 1274.54 386.271 1273.92 386.271 C 1273.5 386.271 1273.09 386.351 1272.69 386.511 C 1272.283 386.664 1271.913 386.908 1271.58 387.241 L 1270.92 386.361 C 1271.327 385.954 1271.793 385.651 1272.32 385.451 C 1272.853 385.251 1273.42 385.151 1274.02 385.151 C 1274.587 385.151 1275.103 385.221 1275.57 385.361 C 1276.043 385.494 1276.447 385.724 1276.78 386.051 C 1277.113 386.371 1277.373 386.804 1277.56 387.351 C 1277.747 387.898 1277.84 388.581 1277.84 389.401 L 1277.84 394.021 L 1276.35 394.021 L 1276.35 392.691 C 1276.19 393.011 1275.99 393.271 1275.75 393.471 C 1275.517 393.671 1275.267 393.824 1275 393.931 C 1274.733 394.044 1274.463 394.121 1274.19 394.161 C 1273.91 394.208 1273.643 394.231 1273.39 394.231 ZM 1284.56 394.151 C 1284 394.151 1283.543 394.058 1283.19 393.871 C 1282.837 393.678 1282.567 393.381 1282.38 392.981 C 1282.187 392.588 1282.063 392.084 1282.01 391.471 C 1281.95 390.864 1281.933 390.144 1281.96 389.311 L 1282.19 383.111 L 1283.61 382.941 L 1283.8 382.921 L 1283.82 383.061 C 1283.753 383.148 1283.7 383.234 1283.66 383.321 C 1283.613 383.414 1283.577 383.568 1283.55 383.781 L 1283.38 385.931 L 1283.44 386.271 L 1283.31 389.401 C 1283.27 390.368 1283.293 391.114 1283.38 391.641 C 1283.473 392.161 1283.633 392.521 1283.86 392.721 C 1284.087 392.914 1284.39 393.011 1284.77 393.011 C 1285.19 393.011 1285.56 392.931 1285.88 392.771 C 1286.207 392.604 1286.547 392.394 1286.9 392.141 L 1287.32 393.221 C 1286.887 393.541 1286.443 393.774 1285.99 393.921 C 1285.53 394.074 1285.053 394.151 1284.56 394.151 Z M 1280.21 386.461 L 1280.21 385.341 L 1286.46 385.341 L 1286.46 386.461 L 1280.21 386.461 ZM 1292.58 394.231 C 1292.24 394.231 1291.917 394.181 1291.61 394.081 C 1291.303 393.974 1291.027 393.818 1290.78 393.611 C 1290.533 393.404 1290.323 393.141 1290.15 392.821 C 1289.97 392.508 1289.833 392.128 1289.74 391.681 C 1289.647 391.241 1289.6 390.741 1289.6 390.181 L 1289.61 385.341 L 1290.94 385.341 L 1290.94 390.181 C 1290.94 390.728 1290.993 391.191 1291.1 391.571 C 1291.2 391.951 1291.34 392.254 1291.52 392.481 C 1291.707 392.708 1291.92 392.874 1292.16 392.981 C 1292.4 393.081 1292.653 393.131 1292.92 393.131 C 1293.227 393.131 1293.52 393.071 1293.8 392.951 C 1294.073 392.831 1294.323 392.651 1294.55 392.411 C 1294.77 392.164 1294.943 391.851 1295.07 391.471 C 1295.197 391.091 1295.26 390.641 1295.26 390.121 L 1295.26 385.341 L 1296.59 385.341 L 1296.59 392.671 C 1296.59 392.898 1296.6 393.124 1296.62 393.351 C 1296.64 393.571 1296.693 393.794 1296.78 394.021 L 1295.47 394.021 C 1295.403 393.868 1295.357 393.718 1295.33 393.571 C 1295.31 393.424 1295.297 393.278 1295.29 393.131 C 1295.283 392.978 1295.28 392.831 1295.28 392.691 C 1295.14 392.931 1294.973 393.148 1294.78 393.341 C 1294.593 393.528 1294.383 393.688 1294.15 393.821 C 1293.917 393.954 1293.67 394.054 1293.41 394.121 C 1293.15 394.194 1292.873 394.231 1292.58 394.231 ZM 1302.65 394.211 C 1302.17 394.211 1301.71 394.161 1301.27 394.061 C 1300.837 393.961 1300.427 393.808 1300.04 393.601 C 1299.653 393.401 1299.293 393.148 1298.96 392.841 L 1299.72 391.551 L 1299.84 391.381 L 1299.95 391.461 C 1299.977 391.561 1300.007 391.664 1300.04 391.771 C 1300.067 391.878 1300.15 392.008 1300.29 392.161 C 1300.557 392.428 1300.877 392.644 1301.25 392.811 C 1301.623 392.984 1302.103 393.071 1302.69 393.071 C 1303.157 393.071 1303.55 393.014 1303.87 392.901 C 1304.197 392.788 1304.45 392.624 1304.63 392.411 C 1304.803 392.204 1304.89 391.961 1304.89 391.681 C 1304.89 391.494 1304.853 391.328 1304.78 391.181 C 1304.7 391.034 1304.577 390.898 1304.41 390.771 C 1304.237 390.644 1304.01 390.518 1303.73 390.391 C 1303.45 390.264 1303.11 390.138 1302.71 390.011 C 1302.05 389.824 1301.473 389.604 1300.98 389.351 C 1300.487 389.098 1300.107 388.801 1299.84 388.461 C 1299.573 388.128 1299.44 387.744 1299.44 387.311 C 1299.44 386.871 1299.56 386.488 1299.8 386.161 C 1300.04 385.841 1300.397 385.588 1300.87 385.401 C 1301.35 385.221 1301.937 385.131 1302.63 385.131 C 1303.037 385.131 1303.403 385.158 1303.73 385.211 C 1304.063 385.271 1304.367 385.358 1304.64 385.471 C 1304.92 385.584 1305.177 385.728 1305.41 385.901 C 1305.643 386.068 1305.87 386.268 1306.09 386.501 L 1305.31 387.451 L 1305.18 387.601 L 1305.08 387.501 C 1305.067 387.401 1305.04 387.304 1305 387.211 C 1304.953 387.118 1304.86 387.001 1304.72 386.861 C 1304.427 386.634 1304.097 386.458 1303.73 386.331 C 1303.363 386.211 1303.01 386.151 1302.67 386.151 C 1302.163 386.151 1301.727 386.241 1301.36 386.421 C 1300.993 386.601 1300.81 386.874 1300.81 387.241 C 1300.81 387.428 1300.877 387.614 1301.01 387.801 C 1301.137 387.981 1301.38 388.164 1301.74 388.351 C 1302.093 388.531 1302.6 388.718 1303.26 388.911 C 1303.98 389.138 1304.56 389.368 1305 389.601 C 1305.433 389.834 1305.75 390.104 1305.95 390.411 C 1306.143 390.718 1306.24 391.078 1306.24 391.491 C 1306.24 391.978 1306.11 392.428 1305.85 392.841 C 1305.59 393.261 1305.193 393.594 1304.66 393.841 C 1304.127 394.088 1303.457 394.211 1302.65 394.211 Z" transform="matrix(1, 0, 0, 1, -855.375, -340.921875)" style="fill: rgb(90, 142, 255); white-space: pre;"/>
  <path d="M 1252.93 416.191 L 1251.52 416.191 L 1251.52 404.341 L 1252.91 404.341 L 1252.91 406.051 C 1253.05 405.604 1253.25 405.241 1253.51 404.961 C 1253.77 404.688 1254.073 404.484 1254.42 404.351 C 1254.767 404.218 1255.143 404.151 1255.55 404.151 C 1256.03 404.151 1256.49 404.241 1256.93 404.421 C 1257.363 404.608 1257.747 404.884 1258.08 405.251 C 1258.42 405.618 1258.687 406.081 1258.88 406.641 C 1259.08 407.194 1259.18 407.851 1259.18 408.611 C 1259.18 409.371 1259.073 410.044 1258.86 410.631 C 1258.653 411.211 1258.377 411.694 1258.03 412.081 C 1257.683 412.468 1257.29 412.758 1256.85 412.951 C 1256.41 413.151 1255.963 413.251 1255.51 413.251 C 1255.17 413.251 1254.837 413.198 1254.51 413.091 C 1254.19 412.978 1253.897 412.818 1253.63 412.611 C 1253.363 412.404 1253.13 412.161 1252.93 411.881 L 1252.93 416.191 Z M 1255.28 412.031 C 1255.587 412.031 1255.883 411.978 1256.17 411.871 C 1256.463 411.764 1256.73 411.584 1256.97 411.331 C 1257.21 411.078 1257.4 410.731 1257.54 410.291 C 1257.68 409.858 1257.75 409.318 1257.75 408.671 C 1257.75 407.971 1257.663 407.378 1257.49 406.891 C 1257.31 406.404 1257.053 406.028 1256.72 405.761 C 1256.38 405.494 1255.97 405.351 1255.49 405.331 C 1255.137 405.304 1254.803 405.354 1254.49 405.481 C 1254.183 405.608 1253.91 405.814 1253.67 406.101 C 1253.43 406.394 1253.243 406.778 1253.11 407.251 C 1252.977 407.731 1252.91 408.304 1252.91 408.971 C 1252.923 409.378 1252.967 409.748 1253.04 410.081 C 1253.113 410.408 1253.22 410.694 1253.36 410.941 C 1253.5 411.188 1253.667 411.391 1253.86 411.551 C 1254.047 411.711 1254.26 411.831 1254.5 411.911 C 1254.74 411.991 1255 412.031 1255.28 412.031 ZM 1265.05 413.211 C 1264.417 413.211 1263.84 413.114 1263.32 412.921 C 1262.8 412.721 1262.353 412.431 1261.98 412.051 C 1261.607 411.671 1261.317 411.201 1261.11 410.641 C 1260.91 410.074 1260.81 409.431 1260.81 408.711 C 1260.81 407.971 1260.913 407.318 1261.12 406.751 C 1261.333 406.178 1261.62 405.701 1261.98 405.321 C 1262.34 404.934 1262.763 404.638 1263.25 404.431 C 1263.737 404.231 1264.253 404.131 1264.8 404.131 C 1265.293 404.131 1265.757 404.214 1266.19 404.381 C 1266.617 404.541 1266.99 404.791 1267.31 405.131 C 1267.623 405.464 1267.873 405.891 1268.06 406.411 C 1268.247 406.931 1268.34 407.544 1268.34 408.251 C 1268.34 408.351 1268.337 408.454 1268.33 408.561 C 1268.323 408.674 1268.313 408.781 1268.3 408.881 L 1262.12 408.881 C 1262.147 409.434 1262.243 409.918 1262.41 410.331 C 1262.57 410.744 1262.783 411.081 1263.05 411.341 C 1263.317 411.601 1263.623 411.794 1263.97 411.921 C 1264.323 412.048 1264.697 412.111 1265.09 412.111 C 1265.39 412.111 1265.673 412.074 1265.94 412.001 C 1266.207 411.934 1266.457 411.828 1266.69 411.681 C 1266.923 411.534 1267.137 411.354 1267.33 411.141 L 1268.09 411.881 C 1267.85 412.174 1267.573 412.421 1267.26 412.621 C 1266.953 412.821 1266.617 412.971 1266.25 413.071 C 1265.877 413.164 1265.477 413.211 1265.05 413.211 Z M 1262.18 407.811 L 1266.95 407.811 C 1266.95 407.411 1266.897 407.048 1266.79 406.721 C 1266.683 406.401 1266.53 406.124 1266.33 405.891 C 1266.137 405.651 1265.903 405.471 1265.63 405.351 C 1265.357 405.231 1265.05 405.171 1264.71 405.171 C 1264.403 405.171 1264.113 405.224 1263.84 405.331 C 1263.567 405.431 1263.317 405.591 1263.09 405.811 C 1262.863 406.031 1262.67 406.308 1262.51 406.641 C 1262.35 406.968 1262.24 407.358 1262.18 407.811 ZM 1272.08 413.021 L 1270.75 413.021 L 1270.75 404.341 L 1272.08 404.341 L 1272.08 405.881 C 1272.307 405.521 1272.573 405.211 1272.88 404.951 C 1273.18 404.691 1273.513 404.491 1273.88 404.351 C 1274.247 404.204 1274.627 404.131 1275.02 404.131 C 1275.507 404.131 1275.937 404.251 1276.31 404.491 C 1276.69 404.731 1276.997 405.118 1277.23 405.651 C 1277.457 406.184 1277.57 406.888 1277.57 407.761 L 1277.57 413.021 L 1276.24 413.021 L 1276.24 407.801 C 1276.24 407.188 1276.17 406.701 1276.03 406.341 C 1275.89 405.981 1275.7 405.721 1275.46 405.561 C 1275.22 405.408 1274.947 405.331 1274.64 405.331 C 1274.353 405.331 1274.06 405.394 1273.76 405.521 C 1273.46 405.648 1273.183 405.828 1272.93 406.061 C 1272.677 406.294 1272.473 406.574 1272.32 406.901 C 1272.16 407.234 1272.08 407.608 1272.08 408.021 L 1272.08 413.021 ZM 1283.33 413.211 C 1282.883 413.211 1282.447 413.114 1282.02 412.921 C 1281.6 412.734 1281.217 412.451 1280.87 412.071 C 1280.517 411.691 1280.24 411.211 1280.04 410.631 C 1279.833 410.044 1279.73 409.364 1279.73 408.591 C 1279.73 407.798 1279.84 407.118 1280.06 406.551 C 1280.273 405.991 1280.557 405.528 1280.91 405.161 C 1281.263 404.801 1281.657 404.538 1282.09 404.371 C 1282.523 404.198 1282.96 404.111 1283.4 404.111 C 1283.807 404.111 1284.17 404.174 1284.49 404.301 C 1284.817 404.428 1285.103 404.601 1285.35 404.821 C 1285.597 405.041 1285.79 405.304 1285.93 405.611 L 1285.93 400.391 L 1287.18 400.391 L 1287.37 400.391 L 1287.37 400.521 C 1287.297 400.594 1287.25 400.678 1287.23 400.771 C 1287.21 400.858 1287.2 401.008 1287.2 401.221 L 1287.22 411.671 C 1287.22 411.898 1287.23 412.124 1287.25 412.351 C 1287.27 412.571 1287.323 412.794 1287.41 413.021 L 1286.06 413.021 C 1286 412.868 1285.957 412.714 1285.93 412.561 C 1285.903 412.414 1285.887 412.268 1285.88 412.121 C 1285.873 411.974 1285.87 411.824 1285.87 411.671 C 1285.697 411.978 1285.483 412.248 1285.23 412.481 C 1284.977 412.714 1284.69 412.894 1284.37 413.021 C 1284.057 413.148 1283.71 413.211 1283.33 413.211 Z M 1283.54 412.011 C 1283.953 412.011 1284.307 411.928 1284.6 411.761 C 1284.893 411.588 1285.127 411.344 1285.3 411.031 C 1285.48 410.724 1285.61 410.364 1285.69 409.951 C 1285.77 409.538 1285.81 409.098 1285.81 408.631 C 1285.81 407.984 1285.73 407.404 1285.57 406.891 C 1285.403 406.378 1285.143 405.974 1284.79 405.681 C 1284.437 405.381 1283.98 405.231 1283.42 405.231 C 1283.04 405.231 1282.7 405.304 1282.4 405.451 C 1282.107 405.598 1281.86 405.811 1281.66 406.091 C 1281.467 406.364 1281.32 406.694 1281.22 407.081 C 1281.12 407.468 1281.07 407.901 1281.07 408.381 C 1281.07 409.108 1281.163 409.741 1281.35 410.281 C 1281.537 410.828 1281.817 411.254 1282.19 411.561 C 1282.557 411.861 1283.007 412.011 1283.54 412.011 ZM 1295.9 413.021 L 1290.28 413.021 L 1290.28 411.921 L 1292.5 411.921 L 1292.5 405.441 L 1290.39 405.441 L 1290.39 404.341 L 1293.87 404.341 L 1293.87 411.921 L 1295.9 411.921 L 1295.9 413.021 Z M 1293.11 402.511 C 1292.843 402.511 1292.617 402.418 1292.43 402.231 C 1292.237 402.038 1292.14 401.808 1292.14 401.541 C 1292.14 401.268 1292.233 401.034 1292.42 400.841 C 1292.6 400.654 1292.83 400.561 1293.11 400.561 C 1293.377 400.561 1293.607 400.658 1293.8 400.851 C 1294 401.044 1294.1 401.274 1294.1 401.541 C 1294.1 401.808 1294 402.038 1293.8 402.231 C 1293.607 402.418 1293.377 402.511 1293.11 402.511 ZM 1300.58 413.021 L 1299.25 413.021 L 1299.25 404.341 L 1300.58 404.341 L 1300.58 405.881 C 1300.807 405.521 1301.073 405.211 1301.38 404.951 C 1301.68 404.691 1302.013 404.491 1302.38 404.351 C 1302.747 404.204 1303.127 404.131 1303.52 404.131 C 1304.007 404.131 1304.437 404.251 1304.81 404.491 C 1305.19 404.731 1305.497 405.118 1305.73 405.651 C 1305.957 406.184 1306.07 406.888 1306.07 407.761 L 1306.07 413.021 L 1304.74 413.021 L 1304.74 407.801 C 1304.74 407.188 1304.67 406.701 1304.53 406.341 C 1304.39 405.981 1304.2 405.721 1303.96 405.561 C 1303.72 405.408 1303.447 405.331 1303.14 405.331 C 1302.853 405.331 1302.56 405.394 1302.26 405.521 C 1301.96 405.648 1301.683 405.828 1301.43 406.061 C 1301.177 406.294 1300.973 406.574 1300.82 406.901 C 1300.66 407.234 1300.58 407.608 1300.58 408.021 L 1300.58 413.021 ZM 1312.07 416.291 C 1311.463 416.291 1310.917 416.244 1310.43 416.151 C 1309.943 416.051 1309.527 415.911 1309.18 415.731 C 1308.827 415.544 1308.56 415.311 1308.38 415.031 C 1308.193 414.758 1308.1 414.431 1308.1 414.051 C 1308.1 413.691 1308.177 413.374 1308.33 413.101 C 1308.483 412.821 1308.683 412.588 1308.93 412.401 C 1309.177 412.221 1309.447 412.084 1309.74 411.991 L 1310.31 412.341 C 1310.077 412.481 1309.893 412.618 1309.76 412.751 C 1309.62 412.891 1309.517 413.054 1309.45 413.241 C 1309.39 413.421 1309.36 413.638 1309.36 413.891 C 1309.36 414.111 1309.423 414.304 1309.55 414.471 C 1309.677 414.644 1309.857 414.788 1310.09 414.901 C 1310.323 415.014 1310.607 415.104 1310.94 415.171 C 1311.28 415.231 1311.663 415.261 1312.09 415.261 C 1312.677 415.261 1313.15 415.201 1313.51 415.081 C 1313.87 414.961 1314.137 414.798 1314.31 414.591 C 1314.49 414.378 1314.58 414.138 1314.58 413.871 C 1314.58 413.598 1314.53 413.371 1314.43 413.191 C 1314.33 413.011 1314.12 412.878 1313.8 412.791 C 1313.487 412.704 1313.007 412.661 1312.36 412.661 C 1311.913 412.661 1311.507 412.641 1311.14 412.601 C 1310.773 412.568 1310.443 412.504 1310.15 412.411 C 1309.863 412.324 1309.62 412.214 1309.42 412.081 C 1309.227 411.948 1309.08 411.784 1308.98 411.591 C 1308.873 411.404 1308.82 411.184 1308.82 410.931 C 1308.82 410.604 1308.913 410.288 1309.1 409.981 C 1309.28 409.674 1309.53 409.384 1309.85 409.111 L 1310.5 409.621 C 1310.373 409.761 1310.27 409.884 1310.19 409.991 C 1310.117 410.098 1310.063 410.198 1310.03 410.291 C 1309.997 410.391 1309.98 410.498 1309.98 410.611 C 1309.98 410.811 1310.06 410.974 1310.22 411.101 C 1310.38 411.228 1310.657 411.321 1311.05 411.381 C 1311.443 411.434 1311.973 411.461 1312.64 411.461 C 1313.313 411.461 1313.86 411.514 1314.28 411.621 C 1314.693 411.734 1315.013 411.891 1315.24 412.091 C 1315.46 412.291 1315.613 412.524 1315.7 412.791 C 1315.793 413.058 1315.84 413.351 1315.84 413.671 C 1315.84 414.011 1315.773 414.334 1315.64 414.641 C 1315.507 414.954 1315.293 415.234 1315 415.481 C 1314.707 415.728 1314.32 415.924 1313.84 416.071 C 1313.36 416.218 1312.77 416.291 1312.07 416.291 Z M 1311.67 410.081 C 1311.05 410.081 1310.513 409.944 1310.06 409.671 C 1309.6 409.398 1309.247 409.028 1309 408.561 C 1308.753 408.101 1308.63 407.594 1308.63 407.041 C 1308.63 406.481 1308.753 405.974 1309 405.521 C 1309.247 405.061 1309.6 404.694 1310.06 404.421 C 1310.513 404.148 1311.05 404.011 1311.67 404.011 C 1312.303 404.011 1312.847 404.148 1313.3 404.421 C 1313.747 404.694 1314.093 405.061 1314.34 405.521 C 1314.587 405.974 1314.71 406.481 1314.71 407.041 C 1314.71 407.594 1314.587 408.101 1314.34 408.561 C 1314.093 409.028 1313.747 409.398 1313.3 409.671 C 1312.847 409.944 1312.303 410.081 1311.67 410.081 Z M 1311.67 408.941 C 1312.037 408.941 1312.363 408.854 1312.65 408.681 C 1312.937 408.508 1313.163 408.274 1313.33 407.981 C 1313.49 407.694 1313.57 407.381 1313.57 407.041 C 1313.57 406.681 1313.49 406.361 1313.33 406.081 C 1313.163 405.794 1312.937 405.564 1312.65 405.391 C 1312.363 405.224 1312.037 405.141 1311.67 405.141 C 1311.303 405.141 1310.98 405.224 1310.7 405.391 C 1310.413 405.564 1310.187 405.794 1310.02 406.081 C 1309.853 406.361 1309.77 406.681 1309.77 407.041 C 1309.77 407.381 1309.853 407.694 1310.02 407.981 C 1310.187 408.274 1310.413 408.508 1310.7 408.681 C 1310.98 408.854 1311.303 408.941 1311.67 408.941 Z M 1314.2 405.741 L 1313.67 405.121 C 1314.037 404.748 1314.42 404.478 1314.82 404.311 C 1315.22 404.138 1315.69 404.071 1316.23 404.111 L 1316.41 405.231 C 1315.99 405.191 1315.597 405.204 1315.23 405.271 C 1314.863 405.331 1314.52 405.488 1314.2 405.741 Z" transform="matrix(1, 0, 0, 1, -855.375, -340.921875)" style="fill: rgb(90, 142, 255); white-space: pre;"/>
  <path d="M 464.09 21.512 L 465.61 21.512 C 465.61 22.272 465.607 22.879 465.6 23.332 C 465.587 23.785 465.563 24.169 465.53 24.482 C 465.497 24.789 465.463 25.085 465.43 25.372 C 465.39 25.659 465.35 26.005 465.31 26.412 L 464.4 26.412 C 464.36 26.005 464.32 25.659 464.28 25.372 C 464.247 25.085 464.213 24.792 464.18 24.492 C 464.147 24.185 464.123 23.802 464.11 23.342 C 464.097 22.882 464.09 22.272 464.09 21.512 Z M 466.95 21.512 L 468.46 21.512 C 468.46 22.272 468.457 22.879 468.45 23.332 C 468.437 23.785 468.413 24.169 468.38 24.482 C 468.347 24.789 468.313 25.085 468.28 25.372 C 468.24 25.659 468.2 26.005 468.16 26.412 L 467.25 26.412 C 467.21 26.005 467.17 25.659 467.13 25.372 C 467.097 25.085 467.063 24.792 467.03 24.492 C 466.997 24.185 466.973 23.802 466.96 23.342 C 466.953 22.882 466.95 22.272 466.95 21.512 Z M 475.78 34.292 C 474.993 34.292 474.3 34.099 473.7 33.712 C 473.1 33.325 472.627 32.795 472.28 32.122 C 471.94 31.442 471.77 30.665 471.77 29.792 C 471.77 28.905 471.94 28.122 472.28 27.442 C 472.627 26.769 473.1 26.239 473.7 25.852 C 474.3 25.465 474.993 25.272 475.78 25.272 C 476.567 25.272 477.26 25.465 477.86 25.852 C 478.46 26.239 478.933 26.769 479.28 27.442 C 479.62 28.122 479.79 28.905 479.79 29.792 C 479.79 30.665 479.62 31.442 479.28 32.122 C 478.933 32.795 478.46 33.325 477.86 33.712 C 477.26 34.099 476.567 34.292 475.78 34.292 Z M 475.78 33.152 C 476.287 33.152 476.73 33.005 477.11 32.712 C 477.49 32.425 477.79 32.029 478.01 31.522 C 478.23 31.015 478.34 30.432 478.34 29.772 C 478.34 29.112 478.23 28.529 478.01 28.022 C 477.79 27.515 477.49 27.119 477.11 26.832 C 476.73 26.552 476.287 26.412 475.78 26.412 C 475.287 26.412 474.847 26.552 474.46 26.832 C 474.073 27.119 473.77 27.515 473.55 28.022 C 473.33 28.529 473.22 29.112 473.22 29.772 C 473.22 30.432 473.33 31.015 473.55 31.522 C 473.77 32.029 474.073 32.425 474.46 32.712 C 474.847 33.005 475.287 33.152 475.78 33.152 Z M 484.73 34.352 C 484.39 34.352 484.067 34.302 483.76 34.202 C 483.453 34.095 483.177 33.939 482.93 33.732 C 482.683 33.525 482.473 33.262 482.3 32.942 C 482.12 32.629 481.983 32.249 481.89 31.802 C 481.797 31.362 481.75 30.862 481.75 30.302 L 481.76 25.462 L 483.09 25.462 L 483.09 30.302 C 483.09 30.849 483.143 31.312 483.25 31.692 C 483.35 32.072 483.49 32.375 483.67 32.602 C 483.857 32.829 484.07 32.995 484.31 33.102 C 484.55 33.202 484.803 33.252 485.07 33.252 C 485.377 33.252 485.67 33.192 485.95 33.072 C 486.223 32.952 486.473 32.772 486.7 32.532 C 486.92 32.285 487.093 31.972 487.22 31.592 C 487.347 31.212 487.41 30.762 487.41 30.242 L 487.41 25.462 L 488.74 25.462 L 488.74 32.792 C 488.74 33.019 488.75 33.245 488.77 33.472 C 488.79 33.692 488.843 33.915 488.93 34.142 L 487.62 34.142 C 487.553 33.989 487.507 33.839 487.48 33.692 C 487.46 33.545 487.447 33.399 487.44 33.252 C 487.433 33.099 487.43 32.952 487.43 32.812 C 487.29 33.052 487.123 33.269 486.93 33.462 C 486.743 33.649 486.533 33.809 486.3 33.942 C 486.067 34.075 485.82 34.175 485.56 34.242 C 485.3 34.315 485.023 34.352 484.73 34.352 Z M 495.71 34.272 C 495.15 34.272 494.693 34.179 494.34 33.992 C 493.987 33.799 493.717 33.502 493.53 33.102 C 493.337 32.709 493.213 32.205 493.16 31.592 C 493.1 30.985 493.083 30.265 493.11 29.432 L 493.34 23.232 L 494.76 23.062 L 494.95 23.042 L 494.97 23.182 C 494.903 23.269 494.85 23.355 494.81 23.442 C 494.763 23.535 494.727 23.689 494.7 23.902 L 494.53 26.052 L 494.59 26.392 L 494.46 29.522 C 494.42 30.489 494.443 31.235 494.53 31.762 C 494.623 32.282 494.783 32.642 495.01 32.842 C 495.237 33.035 495.54 33.132 495.92 33.132 C 496.34 33.132 496.71 33.052 497.03 32.892 C 497.357 32.725 497.697 32.515 498.05 32.262 L 498.47 33.342 C 498.037 33.662 497.593 33.895 497.14 34.042 C 496.68 34.195 496.203 34.272 495.71 34.272 Z M 491.36 26.582 L 491.36 25.462 L 497.61 25.462 L 497.61 26.582 L 491.36 26.582 Z M 502.08 37.312 L 500.67 37.312 L 500.67 25.462 L 502.06 25.462 L 502.06 27.172 C 502.2 26.725 502.4 26.362 502.66 26.082 C 502.92 25.809 503.223 25.605 503.57 25.472 C 503.917 25.339 504.293 25.272 504.7 25.272 C 505.18 25.272 505.64 25.362 506.08 25.542 C 506.513 25.729 506.897 26.005 507.23 26.372 C 507.57 26.739 507.837 27.202 508.03 27.762 C 508.23 28.315 508.33 28.972 508.33 29.732 C 508.33 30.492 508.223 31.165 508.01 31.752 C 507.803 32.332 507.527 32.815 507.18 33.202 C 506.833 33.589 506.44 33.879 506 34.072 C 505.56 34.272 505.113 34.372 504.66 34.372 C 504.32 34.372 503.987 34.319 503.66 34.212 C 503.34 34.099 503.047 33.939 502.78 33.732 C 502.513 33.525 502.28 33.282 502.08 33.002 L 502.08 37.312 Z M 504.43 33.152 C 504.737 33.152 505.033 33.099 505.32 32.992 C 505.613 32.885 505.88 32.705 506.12 32.452 C 506.36 32.199 506.55 31.852 506.69 31.412 C 506.83 30.979 506.9 30.439 506.9 29.792 C 506.9 29.092 506.813 28.499 506.64 28.012 C 506.46 27.525 506.203 27.149 505.87 26.882 C 505.53 26.615 505.12 26.472 504.64 26.452 C 504.287 26.425 503.953 26.475 503.64 26.602 C 503.333 26.729 503.06 26.935 502.82 27.222 C 502.58 27.515 502.393 27.899 502.26 28.372 C 502.127 28.852 502.06 29.425 502.06 30.092 C 502.073 30.499 502.117 30.869 502.19 31.202 C 502.263 31.529 502.37 31.815 502.51 32.062 C 502.65 32.309 502.817 32.512 503.01 32.672 C 503.197 32.832 503.41 32.952 503.65 33.032 C 503.89 33.112 504.15 33.152 504.43 33.152 Z M 513.23 34.352 C 512.89 34.352 512.567 34.302 512.26 34.202 C 511.953 34.095 511.677 33.939 511.43 33.732 C 511.183 33.525 510.973 33.262 510.8 32.942 C 510.62 32.629 510.483 32.249 510.39 31.802 C 510.297 31.362 510.25 30.862 510.25 30.302 L 510.26 25.462 L 511.59 25.462 L 511.59 30.302 C 511.59 30.849 511.643 31.312 511.75 31.692 C 511.85 32.072 511.99 32.375 512.17 32.602 C 512.357 32.829 512.57 32.995 512.81 33.102 C 513.05 33.202 513.303 33.252 513.57 33.252 C 513.877 33.252 514.17 33.192 514.45 33.072 C 514.723 32.952 514.973 32.772 515.2 32.532 C 515.42 32.285 515.593 31.972 515.72 31.592 C 515.847 31.212 515.91 30.762 515.91 30.242 L 515.91 25.462 L 517.24 25.462 L 517.24 32.792 C 517.24 33.019 517.25 33.245 517.27 33.472 C 517.29 33.692 517.343 33.915 517.43 34.142 L 516.12 34.142 C 516.053 33.989 516.007 33.839 515.98 33.692 C 515.96 33.545 515.947 33.399 515.94 33.252 C 515.933 33.099 515.93 32.952 515.93 32.812 C 515.79 33.052 515.623 33.269 515.43 33.462 C 515.243 33.649 515.033 33.809 514.8 33.942 C 514.567 34.075 514.32 34.175 514.06 34.242 C 513.8 34.315 513.523 34.352 513.23 34.352 Z M 524.21 34.272 C 523.65 34.272 523.193 34.179 522.84 33.992 C 522.487 33.799 522.217 33.502 522.03 33.102 C 521.837 32.709 521.713 32.205 521.66 31.592 C 521.6 30.985 521.583 30.265 521.61 29.432 L 521.84 23.232 L 523.26 23.062 L 523.45 23.042 L 523.47 23.182 C 523.403 23.269 523.35 23.355 523.31 23.442 C 523.263 23.535 523.227 23.689 523.2 23.902 L 523.03 26.052 L 523.09 26.392 L 522.96 29.522 C 522.92 30.489 522.943 31.235 523.03 31.762 C 523.123 32.282 523.283 32.642 523.51 32.842 C 523.737 33.035 524.04 33.132 524.42 33.132 C 524.84 33.132 525.21 33.052 525.53 32.892 C 525.857 32.725 526.197 32.515 526.55 32.262 L 526.97 33.342 C 526.537 33.662 526.093 33.895 525.64 34.042 C 525.18 34.195 524.703 34.272 524.21 34.272 Z M 519.86 26.582 L 519.86 25.462 L 526.11 25.462 L 526.11 26.582 L 519.86 26.582 Z M 530.59 21.512 L 532.11 21.512 C 532.11 22.272 532.107 22.879 532.1 23.332 C 532.087 23.785 532.063 24.169 532.03 24.482 C 531.997 24.789 531.963 25.085 531.93 25.372 C 531.89 25.659 531.85 26.005 531.81 26.412 L 530.9 26.412 C 530.86 26.005 530.82 25.659 530.78 25.372 C 530.747 25.085 530.713 24.792 530.68 24.492 C 530.647 24.185 530.623 23.802 530.61 23.342 C 530.597 22.882 530.59 22.272 530.59 21.512 Z M 533.45 21.512 L 534.96 21.512 C 534.96 22.272 534.957 22.879 534.95 23.332 C 534.937 23.785 534.913 24.169 534.88 24.482 C 534.847 24.789 534.813 25.085 534.78 25.372 C 534.74 25.659 534.7 26.005 534.66 26.412 L 533.75 26.412 C 533.71 26.005 533.67 25.659 533.63 25.372 C 533.597 25.085 533.563 24.792 533.53 24.492 C 533.497 24.185 533.473 23.802 533.46 23.342 C 533.453 22.882 533.45 22.272 533.45 21.512 Z" style="white-space: pre; fill: url(#handler-border);"/>
  <path d="M 473.754 40.416 L 475.274 40.416 C 475.274 41.176 475.271 41.783 475.264 42.236 C 475.251 42.689 475.227 43.073 475.194 43.386 C 475.161 43.693 475.127 43.989 475.094 44.276 C 475.054 44.563 475.014 44.909 474.974 45.316 L 474.064 45.316 C 474.024 44.909 473.984 44.563 473.944 44.276 C 473.911 43.989 473.877 43.696 473.844 43.396 C 473.811 43.089 473.787 42.706 473.774 42.246 C 473.761 41.786 473.754 41.176 473.754 40.416 Z M 476.614 40.416 L 478.124 40.416 C 478.124 41.176 478.121 41.783 478.114 42.236 C 478.101 42.689 478.077 43.073 478.044 43.386 C 478.011 43.693 477.977 43.989 477.944 44.276 C 477.904 44.563 477.864 44.909 477.824 45.316 L 476.914 45.316 C 476.874 44.909 476.834 44.563 476.794 44.276 C 476.761 43.989 476.727 43.696 476.694 43.396 C 476.661 43.089 476.637 42.706 476.624 42.246 C 476.617 41.786 476.614 41.176 476.614 40.416 Z M 485.464 53.236 C 484.984 53.236 484.524 53.186 484.084 53.086 C 483.651 52.986 483.241 52.833 482.854 52.626 C 482.467 52.426 482.107 52.173 481.774 51.866 L 482.534 50.576 L 482.654 50.406 L 482.764 50.486 C 482.791 50.586 482.821 50.689 482.854 50.796 C 482.881 50.903 482.964 51.033 483.104 51.186 C 483.371 51.453 483.691 51.669 484.064 51.836 C 484.437 52.009 484.917 52.096 485.504 52.096 C 485.971 52.096 486.364 52.039 486.684 51.926 C 487.011 51.813 487.264 51.649 487.444 51.436 C 487.617 51.229 487.704 50.986 487.704 50.706 C 487.704 50.519 487.667 50.353 487.594 50.206 C 487.514 50.059 487.391 49.923 487.224 49.796 C 487.051 49.669 486.824 49.543 486.544 49.416 C 486.264 49.289 485.924 49.163 485.524 49.036 C 484.864 48.849 484.287 48.629 483.794 48.376 C 483.301 48.123 482.921 47.826 482.654 47.486 C 482.387 47.153 482.254 46.769 482.254 46.336 C 482.254 45.896 482.374 45.513 482.614 45.186 C 482.854 44.866 483.211 44.613 483.684 44.426 C 484.164 44.246 484.751 44.156 485.444 44.156 C 485.851 44.156 486.217 44.183 486.544 44.236 C 486.877 44.296 487.181 44.383 487.454 44.496 C 487.734 44.609 487.991 44.753 488.224 44.926 C 488.457 45.093 488.684 45.293 488.904 45.526 L 488.124 46.476 L 487.994 46.626 L 487.894 46.526 C 487.881 46.426 487.854 46.329 487.814 46.236 C 487.767 46.143 487.674 46.026 487.534 45.886 C 487.241 45.659 486.911 45.483 486.544 45.356 C 486.177 45.236 485.824 45.176 485.484 45.176 C 484.977 45.176 484.541 45.266 484.174 45.446 C 483.807 45.626 483.624 45.899 483.624 46.266 C 483.624 46.453 483.691 46.639 483.824 46.826 C 483.951 47.006 484.194 47.189 484.554 47.376 C 484.907 47.556 485.414 47.743 486.074 47.936 C 486.794 48.163 487.374 48.393 487.814 48.626 C 488.247 48.859 488.564 49.129 488.764 49.436 C 488.957 49.743 489.054 50.103 489.054 50.516 C 489.054 51.003 488.924 51.453 488.664 51.866 C 488.404 52.286 488.007 52.619 487.474 52.866 C 486.941 53.113 486.271 53.236 485.464 53.236 Z M 494.394 53.256 C 494.054 53.256 493.731 53.206 493.424 53.106 C 493.117 52.999 492.841 52.843 492.594 52.636 C 492.347 52.429 492.137 52.166 491.964 51.846 C 491.784 51.533 491.647 51.153 491.554 50.706 C 491.461 50.266 491.414 49.766 491.414 49.206 L 491.424 44.366 L 492.754 44.366 L 492.754 49.206 C 492.754 49.753 492.807 50.216 492.914 50.596 C 493.014 50.976 493.154 51.279 493.334 51.506 C 493.521 51.733 493.734 51.899 493.974 52.006 C 494.214 52.106 494.467 52.156 494.734 52.156 C 495.041 52.156 495.334 52.096 495.614 51.976 C 495.887 51.856 496.137 51.676 496.364 51.436 C 496.584 51.189 496.757 50.876 496.884 50.496 C 497.011 50.116 497.074 49.666 497.074 49.146 L 497.074 44.366 L 498.404 44.366 L 498.404 51.696 C 498.404 51.923 498.414 52.149 498.434 52.376 C 498.454 52.596 498.507 52.819 498.594 53.046 L 497.284 53.046 C 497.217 52.893 497.171 52.743 497.144 52.596 C 497.124 52.449 497.111 52.303 497.104 52.156 C 497.097 52.003 497.094 51.856 497.094 51.716 C 496.954 51.956 496.787 52.173 496.594 52.366 C 496.407 52.553 496.197 52.713 495.964 52.846 C 495.731 52.979 495.484 53.079 495.224 53.146 C 494.964 53.219 494.687 53.256 494.394 53.256 Z M 505.114 53.256 C 504.474 53.256 503.891 53.143 503.364 52.916 C 502.831 52.689 502.371 52.373 501.984 51.966 C 501.597 51.559 501.297 51.079 501.084 50.526 C 500.864 49.979 500.754 49.376 500.754 48.716 C 500.754 48.069 500.864 47.469 501.084 46.916 C 501.297 46.369 501.597 45.893 501.984 45.486 C 502.371 45.079 502.831 44.763 503.364 44.536 C 503.891 44.309 504.467 44.196 505.094 44.196 C 505.801 44.196 506.437 44.336 507.004 44.616 C 507.564 44.903 508.021 45.299 508.374 45.806 L 507.524 46.646 L 507.384 46.776 L 507.294 46.676 C 507.294 46.576 507.271 46.483 507.224 46.396 C 507.184 46.309 507.087 46.189 506.934 46.036 C 506.654 45.783 506.357 45.606 506.044 45.506 C 505.724 45.406 505.354 45.356 504.934 45.356 C 504.567 45.356 504.221 45.429 503.894 45.576 C 503.567 45.729 503.274 45.949 503.014 46.236 C 502.754 46.523 502.547 46.866 502.394 47.266 C 502.241 47.673 502.164 48.123 502.164 48.616 C 502.164 49.109 502.241 49.563 502.394 49.976 C 502.547 50.389 502.754 50.749 503.014 51.056 C 503.281 51.356 503.601 51.593 503.974 51.766 C 504.347 51.933 504.751 52.016 505.184 52.016 C 505.477 52.016 505.757 51.976 506.024 51.896 C 506.291 51.816 506.544 51.696 506.784 51.536 C 507.024 51.376 507.244 51.183 507.444 50.956 L 508.244 51.886 C 507.811 52.346 507.334 52.689 506.814 52.916 C 506.287 53.143 505.721 53.256 505.114 53.256 Z M 514.614 53.256 C 513.974 53.256 513.391 53.143 512.864 52.916 C 512.331 52.689 511.871 52.373 511.484 51.966 C 511.097 51.559 510.797 51.079 510.584 50.526 C 510.364 49.979 510.254 49.376 510.254 48.716 C 510.254 48.069 510.364 47.469 510.584 46.916 C 510.797 46.369 511.097 45.893 511.484 45.486 C 511.871 45.079 512.331 44.763 512.864 44.536 C 513.391 44.309 513.967 44.196 514.594 44.196 C 515.301 44.196 515.937 44.336 516.504 44.616 C 517.064 44.903 517.521 45.299 517.874 45.806 L 517.024 46.646 L 516.884 46.776 L 516.794 46.676 C 516.794 46.576 516.771 46.483 516.724 46.396 C 516.684 46.309 516.587 46.189 516.434 46.036 C 516.154 45.783 515.857 45.606 515.544 45.506 C 515.224 45.406 514.854 45.356 514.434 45.356 C 514.067 45.356 513.721 45.429 513.394 45.576 C 513.067 45.729 512.774 45.949 512.514 46.236 C 512.254 46.523 512.047 46.866 511.894 47.266 C 511.741 47.673 511.664 48.123 511.664 48.616 C 511.664 49.109 511.741 49.563 511.894 49.976 C 512.047 50.389 512.254 50.749 512.514 51.056 C 512.781 51.356 513.101 51.593 513.474 51.766 C 513.847 51.933 514.251 52.016 514.684 52.016 C 514.977 52.016 515.257 51.976 515.524 51.896 C 515.791 51.816 516.044 51.696 516.284 51.536 C 516.524 51.376 516.744 51.183 516.944 50.956 L 517.744 51.886 C 517.311 52.346 516.834 52.689 516.314 52.916 C 515.787 53.143 515.221 53.256 514.614 53.256 Z M 523.864 53.236 C 523.231 53.236 522.654 53.139 522.134 52.946 C 521.614 52.746 521.167 52.456 520.794 52.076 C 520.421 51.696 520.131 51.226 519.924 50.666 C 519.724 50.099 519.624 49.456 519.624 48.736 C 519.624 47.996 519.727 47.343 519.934 46.776 C 520.147 46.203 520.434 45.726 520.794 45.346 C 521.154 44.959 521.577 44.663 522.064 44.456 C 522.551 44.256 523.067 44.156 523.614 44.156 C 524.107 44.156 524.571 44.239 525.004 44.406 C 525.431 44.566 525.804 44.816 526.124 45.156 C 526.437 45.489 526.687 45.916 526.874 46.436 C 527.061 46.956 527.154 47.569 527.154 48.276 C 527.154 48.376 527.151 48.479 527.144 48.586 C 527.137 48.699 527.127 48.806 527.114 48.906 L 520.934 48.906 C 520.961 49.459 521.057 49.943 521.224 50.356 C 521.384 50.769 521.597 51.106 521.864 51.366 C 522.131 51.626 522.437 51.819 522.784 51.946 C 523.137 52.073 523.511 52.136 523.904 52.136 C 524.204 52.136 524.487 52.099 524.754 52.026 C 525.021 51.959 525.271 51.853 525.504 51.706 C 525.737 51.559 525.951 51.379 526.144 51.166 L 526.904 51.906 C 526.664 52.199 526.387 52.446 526.074 52.646 C 525.767 52.846 525.431 52.996 525.064 53.096 C 524.691 53.189 524.291 53.236 523.864 53.236 Z M 520.994 47.836 L 525.764 47.836 C 525.764 47.436 525.711 47.073 525.604 46.746 C 525.497 46.426 525.344 46.149 525.144 45.916 C 524.951 45.676 524.717 45.496 524.444 45.376 C 524.171 45.256 523.864 45.196 523.524 45.196 C 523.217 45.196 522.927 45.249 522.654 45.356 C 522.381 45.456 522.131 45.616 521.904 45.836 C 521.677 46.056 521.484 46.333 521.324 46.666 C 521.164 46.993 521.054 47.383 520.994 47.836 Z M 532.964 53.236 C 532.484 53.236 532.024 53.186 531.584 53.086 C 531.151 52.986 530.741 52.833 530.354 52.626 C 529.967 52.426 529.607 52.173 529.274 51.866 L 530.034 50.576 L 530.154 50.406 L 530.264 50.486 C 530.291 50.586 530.321 50.689 530.354 50.796 C 530.381 50.903 530.464 51.033 530.604 51.186 C 530.871 51.453 531.191 51.669 531.564 51.836 C 531.937 52.009 532.417 52.096 533.004 52.096 C 533.471 52.096 533.864 52.039 534.184 51.926 C 534.511 51.813 534.764 51.649 534.944 51.436 C 535.117 51.229 535.204 50.986 535.204 50.706 C 535.204 50.519 535.167 50.353 535.094 50.206 C 535.014 50.059 534.891 49.923 534.724 49.796 C 534.551 49.669 534.324 49.543 534.044 49.416 C 533.764 49.289 533.424 49.163 533.024 49.036 C 532.364 48.849 531.787 48.629 531.294 48.376 C 530.801 48.123 530.421 47.826 530.154 47.486 C 529.887 47.153 529.754 46.769 529.754 46.336 C 529.754 45.896 529.874 45.513 530.114 45.186 C 530.354 44.866 530.711 44.613 531.184 44.426 C 531.664 44.246 532.251 44.156 532.944 44.156 C 533.351 44.156 533.717 44.183 534.044 44.236 C 534.377 44.296 534.681 44.383 534.954 44.496 C 535.234 44.609 535.491 44.753 535.724 44.926 C 535.957 45.093 536.184 45.293 536.404 45.526 L 535.624 46.476 L 535.494 46.626 L 535.394 46.526 C 535.381 46.426 535.354 46.329 535.314 46.236 C 535.267 46.143 535.174 46.026 535.034 45.886 C 534.741 45.659 534.411 45.483 534.044 45.356 C 533.677 45.236 533.324 45.176 532.984 45.176 C 532.477 45.176 532.041 45.266 531.674 45.446 C 531.307 45.626 531.124 45.899 531.124 46.266 C 531.124 46.453 531.191 46.639 531.324 46.826 C 531.451 47.006 531.694 47.189 532.054 47.376 C 532.407 47.556 532.914 47.743 533.574 47.936 C 534.294 48.163 534.874 48.393 535.314 48.626 C 535.747 48.859 536.064 49.129 536.264 49.436 C 536.457 49.743 536.554 50.103 536.554 50.516 C 536.554 51.003 536.424 51.453 536.164 51.866 C 535.904 52.286 535.507 52.619 534.974 52.866 C 534.441 53.113 533.771 53.236 532.964 53.236 Z M 542.464 53.236 C 541.984 53.236 541.524 53.186 541.084 53.086 C 540.651 52.986 540.241 52.833 539.854 52.626 C 539.467 52.426 539.107 52.173 538.774 51.866 L 539.534 50.576 L 539.654 50.406 L 539.764 50.486 C 539.791 50.586 539.821 50.689 539.854 50.796 C 539.881 50.903 539.964 51.033 540.104 51.186 C 540.371 51.453 540.691 51.669 541.064 51.836 C 541.437 52.009 541.917 52.096 542.504 52.096 C 542.971 52.096 543.364 52.039 543.684 51.926 C 544.011 51.813 544.264 51.649 544.444 51.436 C 544.617 51.229 544.704 50.986 544.704 50.706 C 544.704 50.519 544.667 50.353 544.594 50.206 C 544.514 50.059 544.391 49.923 544.224 49.796 C 544.051 49.669 543.824 49.543 543.544 49.416 C 543.264 49.289 542.924 49.163 542.524 49.036 C 541.864 48.849 541.287 48.629 540.794 48.376 C 540.301 48.123 539.921 47.826 539.654 47.486 C 539.387 47.153 539.254 46.769 539.254 46.336 C 539.254 45.896 539.374 45.513 539.614 45.186 C 539.854 44.866 540.211 44.613 540.684 44.426 C 541.164 44.246 541.751 44.156 542.444 44.156 C 542.851 44.156 543.217 44.183 543.544 44.236 C 543.877 44.296 544.181 44.383 544.454 44.496 C 544.734 44.609 544.991 44.753 545.224 44.926 C 545.457 45.093 545.684 45.293 545.904 45.526 L 545.124 46.476 L 544.994 46.626 L 544.894 46.526 C 544.881 46.426 544.854 46.329 544.814 46.236 C 544.767 46.143 544.674 46.026 544.534 45.886 C 544.241 45.659 543.911 45.483 543.544 45.356 C 543.177 45.236 542.824 45.176 542.484 45.176 C 541.977 45.176 541.541 45.266 541.174 45.446 C 540.807 45.626 540.624 45.899 540.624 46.266 C 540.624 46.453 540.691 46.639 540.824 46.826 C 540.951 47.006 541.194 47.189 541.554 47.376 C 541.907 47.556 542.414 47.743 543.074 47.936 C 543.794 48.163 544.374 48.393 544.814 48.626 C 545.247 48.859 545.564 49.129 545.764 49.436 C 545.957 49.743 546.054 50.103 546.054 50.516 C 546.054 51.003 545.924 51.453 545.664 51.866 C 545.404 52.286 545.007 52.619 544.474 52.866 C 543.941 53.113 543.271 53.236 542.464 53.236 Z M 549.754 40.416 L 551.274 40.416 C 551.274 41.176 551.271 41.783 551.264 42.236 C 551.251 42.689 551.227 43.073 551.194 43.386 C 551.161 43.693 551.127 43.989 551.094 44.276 C 551.054 44.563 551.014 44.909 550.974 45.316 L 550.064 45.316 C 550.024 44.909 549.984 44.563 549.944 44.276 C 549.911 43.989 549.877 43.696 549.844 43.396 C 549.811 43.089 549.787 42.706 549.774 42.246 C 549.761 41.786 549.754 41.176 549.754 40.416 Z M 552.614 40.416 L 554.124 40.416 C 554.124 41.176 554.121 41.783 554.114 42.236 C 554.101 42.689 554.077 43.073 554.044 43.386 C 554.011 43.693 553.977 43.989 553.944 44.276 C 553.904 44.563 553.864 44.909 553.824 45.316 L 552.914 45.316 C 552.874 44.909 552.834 44.563 552.794 44.276 C 552.761 43.989 552.727 43.696 552.694 43.396 C 552.661 43.089 552.637 42.706 552.624 42.246 C 552.617 41.786 552.614 41.176 552.614 40.416 Z" style="fill: url(#handler-border); white-space: pre;"/>
  <path d="M 1305.77 369.171 C 1305.477 369.171 1305.217 369.064 1304.99 368.851 C 1304.763 368.631 1304.65 368.378 1304.65 368.091 C 1304.65 367.784 1304.763 367.524 1304.99 367.311 C 1305.217 367.091 1305.477 366.981 1305.77 366.981 C 1306.063 366.981 1306.327 367.091 1306.56 367.311 C 1306.793 367.524 1306.91 367.784 1306.91 368.091 C 1306.91 368.378 1306.797 368.631 1306.57 368.851 C 1306.343 369.064 1306.077 369.171 1305.77 369.171 Z M 1305.77 375.231 C 1305.457 375.231 1305.19 375.128 1304.97 374.921 C 1304.757 374.708 1304.65 374.451 1304.65 374.151 C 1304.65 373.844 1304.763 373.584 1304.99 373.371 C 1305.217 373.151 1305.477 373.041 1305.77 373.041 C 1306.063 373.041 1306.327 373.151 1306.56 373.371 C 1306.793 373.584 1306.91 373.844 1306.91 374.151 C 1306.91 374.438 1306.8 374.691 1306.58 374.911 C 1306.36 375.124 1306.09 375.231 1305.77 375.231 Z" transform="matrix(1, 0, 0, 1, -858.729492, -340.973053)" style="fill: rgb(51, 51, 51); white-space: pre;"/>
  <path d="M 1315.27 388.171 C 1314.977 388.171 1314.717 388.064 1314.49 387.851 C 1314.263 387.631 1314.15 387.378 1314.15 387.091 C 1314.15 386.784 1314.263 386.524 1314.49 386.311 C 1314.717 386.091 1314.977 385.981 1315.27 385.981 C 1315.563 385.981 1315.827 386.091 1316.06 386.311 C 1316.293 386.524 1316.41 386.784 1316.41 387.091 C 1316.41 387.378 1316.297 387.631 1316.07 387.851 C 1315.843 388.064 1315.577 388.171 1315.27 388.171 Z M 1315.27 394.231 C 1314.957 394.231 1314.69 394.128 1314.47 393.921 C 1314.257 393.708 1314.15 393.451 1314.15 393.151 C 1314.15 392.844 1314.263 392.584 1314.49 392.371 C 1314.717 392.151 1314.977 392.041 1315.27 392.041 C 1315.563 392.041 1315.827 392.151 1316.06 392.371 C 1316.293 392.584 1316.41 392.844 1316.41 393.151 C 1316.41 393.438 1316.3 393.691 1316.08 393.911 C 1315.86 394.124 1315.59 394.231 1315.27 394.231 Z" transform="matrix(1, 0, 0, 1, -858.729492, -340.973053)" style="fill: rgb(51, 51, 51); white-space: pre;"/>
  <path d="M 1324.77 407.171 C 1324.477 407.171 1324.217 407.064 1323.99 406.851 C 1323.763 406.631 1323.65 406.378 1323.65 406.091 C 1323.65 405.784 1323.763 405.524 1323.99 405.311 C 1324.217 405.091 1324.477 404.981 1324.77 404.981 C 1325.063 404.981 1325.327 405.091 1325.56 405.311 C 1325.793 405.524 1325.91 405.784 1325.91 406.091 C 1325.91 406.378 1325.797 406.631 1325.57 406.851 C 1325.343 407.064 1325.077 407.171 1324.77 407.171 Z M 1324.77 413.231 C 1324.457 413.231 1324.19 413.128 1323.97 412.921 C 1323.757 412.708 1323.65 412.451 1323.65 412.151 C 1323.65 411.844 1323.763 411.584 1323.99 411.371 C 1324.217 411.151 1324.477 411.041 1324.77 411.041 C 1325.063 411.041 1325.327 411.151 1325.56 411.371 C 1325.793 411.584 1325.91 411.844 1325.91 412.151 C 1325.91 412.438 1325.8 412.691 1325.58 412.911 C 1325.36 413.124 1325.09 413.231 1324.77 413.231 Z" transform="matrix(1, 0, 0, 1, -858.729492, -340.973053)" style="fill: rgb(51, 51, 51); white-space: pre;"/>
  <path d="M 483.588 71.903 L 483.588 64.303 L 481.708 64.303 L 481.708 63.223 L 483.588 63.223 L 483.588 62.503 C 483.588 61.73 483.725 61.096 483.998 60.603 C 484.271 60.103 484.648 59.736 485.128 59.503 C 485.608 59.27 486.158 59.153 486.778 59.153 C 487.325 59.153 487.835 59.253 488.308 59.453 C 488.781 59.646 489.178 59.946 489.498 60.353 L 488.778 61.363 L 488.658 61.513 L 488.548 61.433 C 488.535 61.333 488.508 61.233 488.468 61.133 C 488.428 61.033 488.338 60.906 488.198 60.753 C 487.998 60.573 487.798 60.446 487.598 60.373 C 487.391 60.293 487.131 60.253 486.818 60.253 C 486.451 60.253 486.121 60.326 485.828 60.473 C 485.535 60.62 485.308 60.853 485.148 61.173 C 484.981 61.5 484.898 61.943 484.898 62.503 L 484.898 63.223 L 487.748 63.223 L 487.748 64.303 L 484.898 64.303 L 484.898 71.903 L 483.588 71.903 Z M 494.018 72.113 C 493.031 72.113 492.271 71.886 491.738 71.433 C 491.205 70.986 490.938 70.413 490.938 69.713 C 490.938 69.246 491.051 68.826 491.278 68.453 C 491.505 68.08 491.818 67.763 492.218 67.503 C 492.618 67.243 493.085 67.043 493.618 66.903 C 494.151 66.763 494.715 66.693 495.308 66.693 C 495.521 66.693 495.741 66.696 495.968 66.703 C 496.188 66.71 496.421 66.723 496.668 66.743 C 496.915 66.763 497.171 66.793 497.438 66.833 L 497.478 67.873 C 497.251 67.84 497.018 67.813 496.778 67.793 C 496.545 67.773 496.315 67.756 496.088 67.743 C 495.861 67.73 495.641 67.723 495.428 67.723 C 494.968 67.723 494.548 67.76 494.168 67.833 C 493.788 67.913 493.458 68.03 493.178 68.183 C 492.898 68.33 492.685 68.526 492.538 68.773 C 492.385 69.013 492.308 69.303 492.308 69.643 C 492.308 69.91 492.355 70.133 492.448 70.313 C 492.541 70.5 492.671 70.646 492.838 70.753 C 493.005 70.86 493.198 70.94 493.418 70.993 C 493.638 71.04 493.881 71.063 494.148 71.063 C 494.641 71.063 495.081 70.986 495.468 70.833 C 495.855 70.673 496.185 70.44 496.458 70.133 C 496.731 69.833 496.938 69.46 497.078 69.013 C 497.218 68.573 497.288 68.066 497.288 67.493 C 497.288 66.633 497.185 65.963 496.978 65.483 C 496.778 65.003 496.478 64.66 496.078 64.453 C 495.678 64.253 495.168 64.153 494.548 64.153 C 494.128 64.153 493.718 64.233 493.318 64.393 C 492.911 64.546 492.541 64.79 492.208 65.123 L 491.548 64.243 C 491.955 63.836 492.421 63.533 492.948 63.333 C 493.481 63.133 494.048 63.033 494.648 63.033 C 495.215 63.033 495.731 63.103 496.198 63.243 C 496.671 63.376 497.075 63.606 497.408 63.933 C 497.741 64.253 498.001 64.686 498.188 65.233 C 498.375 65.78 498.468 66.463 498.468 67.283 L 498.468 71.903 L 496.978 71.903 L 496.978 70.573 C 496.818 70.893 496.618 71.153 496.378 71.353 C 496.145 71.553 495.895 71.706 495.628 71.813 C 495.361 71.926 495.091 72.003 494.818 72.043 C 494.538 72.09 494.271 72.113 494.018 72.113 Z M 507.508 71.903 L 501.008 71.903 L 501.008 70.803 L 503.578 70.803 L 503.578 60.373 L 501.118 60.373 L 501.118 59.273 L 504.958 59.273 L 504.958 70.803 L 507.508 70.803 L 507.508 71.903 Z M 513.778 72.093 C 513.298 72.093 512.838 72.043 512.398 71.943 C 511.965 71.843 511.555 71.69 511.168 71.483 C 510.781 71.283 510.421 71.03 510.088 70.723 L 510.848 69.433 L 510.968 69.263 L 511.078 69.343 C 511.105 69.443 511.135 69.546 511.168 69.653 C 511.195 69.76 511.278 69.89 511.418 70.043 C 511.685 70.31 512.005 70.526 512.378 70.693 C 512.751 70.866 513.231 70.953 513.818 70.953 C 514.285 70.953 514.678 70.896 514.998 70.783 C 515.325 70.67 515.578 70.506 515.758 70.293 C 515.931 70.086 516.018 69.843 516.018 69.563 C 516.018 69.376 515.981 69.21 515.908 69.063 C 515.828 68.916 515.705 68.78 515.538 68.653 C 515.365 68.526 515.138 68.4 514.858 68.273 C 514.578 68.146 514.238 68.02 513.838 67.893 C 513.178 67.706 512.601 67.486 512.108 67.233 C 511.615 66.98 511.235 66.683 510.968 66.343 C 510.701 66.01 510.568 65.626 510.568 65.193 C 510.568 64.753 510.688 64.37 510.928 64.043 C 511.168 63.723 511.525 63.47 511.998 63.283 C 512.478 63.103 513.065 63.013 513.758 63.013 C 514.165 63.013 514.531 63.04 514.858 63.093 C 515.191 63.153 515.495 63.24 515.768 63.353 C 516.048 63.466 516.305 63.61 516.538 63.783 C 516.771 63.95 516.998 64.15 517.218 64.383 L 516.438 65.333 L 516.308 65.483 L 516.208 65.383 C 516.195 65.283 516.168 65.186 516.128 65.093 C 516.081 65 515.988 64.883 515.848 64.743 C 515.555 64.516 515.225 64.34 514.858 64.213 C 514.491 64.093 514.138 64.033 513.798 64.033 C 513.291 64.033 512.855 64.123 512.488 64.303 C 512.121 64.483 511.938 64.756 511.938 65.123 C 511.938 65.31 512.005 65.496 512.138 65.683 C 512.265 65.863 512.508 66.046 512.868 66.233 C 513.221 66.413 513.728 66.6 514.388 66.793 C 515.108 67.02 515.688 67.25 516.128 67.483 C 516.561 67.716 516.878 67.986 517.078 68.293 C 517.271 68.6 517.368 68.96 517.368 69.373 C 517.368 69.86 517.238 70.31 516.978 70.723 C 516.718 71.143 516.321 71.476 515.788 71.723 C 515.255 71.97 514.585 72.093 513.778 72.093 Z M 523.678 72.093 C 523.045 72.093 522.468 71.996 521.948 71.803 C 521.428 71.603 520.981 71.313 520.608 70.933 C 520.235 70.553 519.945 70.083 519.738 69.523 C 519.538 68.956 519.438 68.313 519.438 67.593 C 519.438 66.853 519.541 66.2 519.748 65.633 C 519.961 65.06 520.248 64.583 520.608 64.203 C 520.968 63.816 521.391 63.52 521.878 63.313 C 522.365 63.113 522.881 63.013 523.428 63.013 C 523.921 63.013 524.385 63.096 524.818 63.263 C 525.245 63.423 525.618 63.673 525.938 64.013 C 526.251 64.346 526.501 64.773 526.688 65.293 C 526.875 65.813 526.968 66.426 526.968 67.133 C 526.968 67.233 526.965 67.336 526.958 67.443 C 526.951 67.556 526.941 67.663 526.928 67.763 L 520.748 67.763 C 520.775 68.316 520.871 68.8 521.038 69.213 C 521.198 69.626 521.411 69.963 521.678 70.223 C 521.945 70.483 522.251 70.676 522.598 70.803 C 522.951 70.93 523.325 70.993 523.718 70.993 C 524.018 70.993 524.301 70.956 524.568 70.883 C 524.835 70.816 525.085 70.71 525.318 70.563 C 525.551 70.416 525.765 70.236 525.958 70.023 L 526.718 70.763 C 526.478 71.056 526.201 71.303 525.888 71.503 C 525.581 71.703 525.245 71.853 524.878 71.953 C 524.505 72.046 524.105 72.093 523.678 72.093 Z M 520.808 66.693 L 525.578 66.693 C 525.578 66.293 525.525 65.93 525.418 65.603 C 525.311 65.283 525.158 65.006 524.958 64.773 C 524.765 64.533 524.531 64.353 524.258 64.233 C 523.985 64.113 523.678 64.053 523.338 64.053 C 523.031 64.053 522.741 64.106 522.468 64.213 C 522.195 64.313 521.945 64.473 521.718 64.693 C 521.491 64.913 521.298 65.19 521.138 65.523 C 520.978 65.85 520.868 66.24 520.808 66.693 Z" style="fill: url(#api-border); white-space: pre;"/>
</svg>