<?xml version="1.0" encoding="utf-8"?>
<svg viewBox="389 -1 172 102" xmlns="http://www.w3.org/2000/svg">
  <defs>
    <linearGradient id="node-fill">
      <title>node-fill</title>
      <stop style="stop-color: rgb(216, 216, 216)"/>
    </linearGradient>
    <linearGradient id="node-border">
      <title>node-border</title>
      <stop style="stop-color: rgb(160, 160, 160)"/>
    </linearGradient>
    <filter id="filter-7" x="-500%" y="-500%" width="1000%" height="1000%">
      <feOffset dx="0" dy="0"/>
      <feGaussianBlur stdDeviation="3"/>
      <feComposite operator="out" in="SourceGraphic"/>
      <feComponentTransfer result="choke">
        <feFuncA type="linear" slope="0.9"/>
      </feComponentTransfer>
      <feFlood flood-color="rgba(0,0,0,0.7)" result="color"/>
      <feComposite operator="in" in="color" in2="choke" result="shadow"/>
      <feComposite operator="over" in="shadow" in2="SourceGraphic"/>
    </filter>
    <linearGradient id="handler-border">
      <title>handler-border</title>
      <stop style="stop-color: rgb(130, 188, 120)"/>
    </linearGradient>
    <linearGradient id="api-border">
      <title>api-stroke</title>
      <stop style="stop-color: rgb(194, 124, 191)"/>
    </linearGradient>
  </defs>
  <path d="M 400.008 0 L 440 0 C 440 5.523 444.477 10 450 10 L 500 10 C 505.523 10 510 5.523 510 0 L 549.992 0 C 555.519 0 560 4.481 560 10.008 L 560 79.992 C 560 85.519 555.519 90 549.992 90 L 510 90 C 510 95.523 505.523 100 500 100 L 450 100 C 444.477 100 440 95.523 440 90 L 400.008 90 C 394.481 90 390 85.519 390 79.992 L 390 10.008 C 390 4.481 394.481 0 400.008 0 Z" style="fill: url(#node-fill); stroke: url(#node-border); filter: url(#filter-7);"/>
  <path d="M 1255.64 375.021 L 1254.58 375.021 L 1251.14 366.341 L 1252.51 366.341 L 1255.32 373.461 L 1255.05 373.461 L 1256.59 369.931 C 1256.897 369.231 1257.14 368.584 1257.32 367.991 C 1257.507 367.398 1257.643 366.848 1257.73 366.341 L 1259.02 366.341 C 1258.92 366.874 1258.763 367.458 1258.55 368.091 C 1258.337 368.724 1258.07 369.408 1257.75 370.141 L 1255.64 375.021 ZM 1263.89 375.231 C 1262.903 375.231 1262.143 375.004 1261.61 374.551 C 1261.077 374.104 1260.81 373.531 1260.81 372.831 C 1260.81 372.364 1260.923 371.944 1261.15 371.571 C 1261.377 371.198 1261.69 370.881 1262.09 370.621 C 1262.49 370.361 1262.957 370.161 1263.49 370.021 C 1264.023 369.881 1264.587 369.811 1265.18 369.811 C 1265.393 369.811 1265.613 369.814 1265.84 369.821 C 1266.06 369.828 1266.293 369.841 1266.54 369.861 C 1266.787 369.881 1267.043 369.911 1267.31 369.951 L 1267.35 370.991 C 1267.123 370.958 1266.89 370.931 1266.65 370.911 C 1266.417 370.891 1266.187 370.874 1265.96 370.861 C 1265.733 370.848 1265.513 370.841 1265.3 370.841 C 1264.84 370.841 1264.42 370.878 1264.04 370.951 C 1263.66 371.031 1263.33 371.148 1263.05 371.301 C 1262.77 371.448 1262.557 371.644 1262.41 371.891 C 1262.257 372.131 1262.18 372.421 1262.18 372.761 C 1262.18 373.028 1262.227 373.251 1262.32 373.431 C 1262.413 373.618 1262.543 373.764 1262.71 373.871 C 1262.877 373.978 1263.07 374.058 1263.29 374.111 C 1263.51 374.158 1263.753 374.181 1264.02 374.181 C 1264.513 374.181 1264.953 374.104 1265.34 373.951 C 1265.727 373.791 1266.057 373.558 1266.33 373.251 C 1266.603 372.951 1266.81 372.578 1266.95 372.131 C 1267.09 371.691 1267.16 371.184 1267.16 370.611 C 1267.16 369.751 1267.057 369.081 1266.85 368.601 C 1266.65 368.121 1266.35 367.778 1265.95 367.571 C 1265.55 367.371 1265.04 367.271 1264.42 367.271 C 1264 367.271 1263.59 367.351 1263.19 367.511 C 1262.783 367.664 1262.413 367.908 1262.08 368.241 L 1261.42 367.361 C 1261.827 366.954 1262.293 366.651 1262.82 366.451 C 1263.353 366.251 1263.92 366.151 1264.52 366.151 C 1265.087 366.151 1265.603 366.221 1266.07 366.361 C 1266.543 366.494 1266.947 366.724 1267.28 367.051 C 1267.613 367.371 1267.873 367.804 1268.06 368.351 C 1268.247 368.898 1268.34 369.581 1268.34 370.401 L 1268.34 375.021 L 1266.85 375.021 L 1266.85 373.691 C 1266.69 374.011 1266.49 374.271 1266.25 374.471 C 1266.017 374.671 1265.767 374.824 1265.5 374.931 C 1265.233 375.044 1264.963 375.121 1264.69 375.161 C 1264.41 375.208 1264.143 375.231 1263.89 375.231 ZM 1277.38 375.021 L 1270.88 375.021 L 1270.88 373.921 L 1273.45 373.921 L 1273.45 363.491 L 1270.99 363.491 L 1270.99 362.391 L 1274.83 362.391 L 1274.83 373.921 L 1277.38 373.921 L 1277.38 375.021 ZM 1283.08 375.231 C 1282.74 375.231 1282.417 375.181 1282.11 375.081 C 1281.803 374.974 1281.527 374.818 1281.28 374.611 C 1281.033 374.404 1280.823 374.141 1280.65 373.821 C 1280.47 373.508 1280.333 373.128 1280.24 372.681 C 1280.147 372.241 1280.1 371.741 1280.1 371.181 L 1280.11 366.341 L 1281.44 366.341 L 1281.44 371.181 C 1281.44 371.728 1281.493 372.191 1281.6 372.571 C 1281.7 372.951 1281.84 373.254 1282.02 373.481 C 1282.207 373.708 1282.42 373.874 1282.66 373.981 C 1282.9 374.081 1283.153 374.131 1283.42 374.131 C 1283.727 374.131 1284.02 374.071 1284.3 373.951 C 1284.573 373.831 1284.823 373.651 1285.05 373.411 C 1285.27 373.164 1285.443 372.851 1285.57 372.471 C 1285.697 372.091 1285.76 371.641 1285.76 371.121 L 1285.76 366.341 L 1287.09 366.341 L 1287.09 373.671 C 1287.09 373.898 1287.1 374.124 1287.12 374.351 C 1287.14 374.571 1287.193 374.794 1287.28 375.021 L 1285.97 375.021 C 1285.903 374.868 1285.857 374.718 1285.83 374.571 C 1285.81 374.424 1285.797 374.278 1285.79 374.131 C 1285.783 373.978 1285.78 373.831 1285.78 373.691 C 1285.64 373.931 1285.473 374.148 1285.28 374.341 C 1285.093 374.528 1284.883 374.688 1284.65 374.821 C 1284.417 374.954 1284.17 375.054 1283.91 375.121 C 1283.65 375.194 1283.373 375.231 1283.08 375.231 ZM 1293.55 375.211 C 1292.917 375.211 1292.34 375.114 1291.82 374.921 C 1291.3 374.721 1290.853 374.431 1290.48 374.051 C 1290.107 373.671 1289.817 373.201 1289.61 372.641 C 1289.41 372.074 1289.31 371.431 1289.31 370.711 C 1289.31 369.971 1289.413 369.318 1289.62 368.751 C 1289.833 368.178 1290.12 367.701 1290.48 367.321 C 1290.84 366.934 1291.263 366.638 1291.75 366.431 C 1292.237 366.231 1292.753 366.131 1293.3 366.131 C 1293.793 366.131 1294.257 366.214 1294.69 366.381 C 1295.117 366.541 1295.49 366.791 1295.81 367.131 C 1296.123 367.464 1296.373 367.891 1296.56 368.411 C 1296.747 368.931 1296.84 369.544 1296.84 370.251 C 1296.84 370.351 1296.837 370.454 1296.83 370.561 C 1296.823 370.674 1296.813 370.781 1296.8 370.881 L 1290.62 370.881 C 1290.647 371.434 1290.743 371.918 1290.91 372.331 C 1291.07 372.744 1291.283 373.081 1291.55 373.341 C 1291.817 373.601 1292.123 373.794 1292.47 373.921 C 1292.823 374.048 1293.197 374.111 1293.59 374.111 C 1293.89 374.111 1294.173 374.074 1294.44 374.001 C 1294.707 373.934 1294.957 373.828 1295.19 373.681 C 1295.423 373.534 1295.637 373.354 1295.83 373.141 L 1296.59 373.881 C 1296.35 374.174 1296.073 374.421 1295.76 374.621 C 1295.453 374.821 1295.117 374.971 1294.75 375.071 C 1294.377 375.164 1293.977 375.211 1293.55 375.211 Z M 1290.68 369.811 L 1295.45 369.811 C 1295.45 369.411 1295.397 369.048 1295.29 368.721 C 1295.183 368.401 1295.03 368.124 1294.83 367.891 C 1294.637 367.651 1294.403 367.471 1294.13 367.351 C 1293.857 367.231 1293.55 367.171 1293.21 367.171 C 1292.903 367.171 1292.613 367.224 1292.34 367.331 C 1292.067 367.431 1291.817 367.591 1291.59 367.811 C 1291.363 368.031 1291.17 368.308 1291.01 368.641 C 1290.85 368.968 1290.74 369.358 1290.68 369.811 Z" transform="matrix(1, 0, 0, 1, -855.375, -340.921875)" style="fill: rgb(90, 142, 255); white-space: pre;"/>
  <path d="M 1255.15 394.211 C 1254.67 394.211 1254.21 394.161 1253.77 394.061 C 1253.337 393.961 1252.927 393.808 1252.54 393.601 C 1252.153 393.401 1251.793 393.148 1251.46 392.841 L 1252.22 391.551 L 1252.34 391.381 L 1252.45 391.461 C 1252.477 391.561 1252.507 391.664 1252.54 391.771 C 1252.567 391.878 1252.65 392.008 1252.79 392.161 C 1253.057 392.428 1253.377 392.644 1253.75 392.811 C 1254.123 392.984 1254.603 393.071 1255.19 393.071 C 1255.657 393.071 1256.05 393.014 1256.37 392.901 C 1256.697 392.788 1256.95 392.624 1257.13 392.411 C 1257.303 392.204 1257.39 391.961 1257.39 391.681 C 1257.39 391.494 1257.353 391.328 1257.28 391.181 C 1257.2 391.034 1257.077 390.898 1256.91 390.771 C 1256.737 390.644 1256.51 390.518 1256.23 390.391 C 1255.95 390.264 1255.61 390.138 1255.21 390.011 C 1254.55 389.824 1253.973 389.604 1253.48 389.351 C 1252.987 389.098 1252.607 388.801 1252.34 388.461 C 1252.073 388.128 1251.94 387.744 1251.94 387.311 C 1251.94 386.871 1252.06 386.488 1252.3 386.161 C 1252.54 385.841 1252.897 385.588 1253.37 385.401 C 1253.85 385.221 1254.437 385.131 1255.13 385.131 C 1255.537 385.131 1255.903 385.158 1256.23 385.211 C 1256.563 385.271 1256.867 385.358 1257.14 385.471 C 1257.42 385.584 1257.677 385.728 1257.91 385.901 C 1258.143 386.068 1258.37 386.268 1258.59 386.501 L 1257.81 387.451 L 1257.68 387.601 L 1257.58 387.501 C 1257.567 387.401 1257.54 387.304 1257.5 387.211 C 1257.453 387.118 1257.36 387.001 1257.22 386.861 C 1256.927 386.634 1256.597 386.458 1256.23 386.331 C 1255.863 386.211 1255.51 386.151 1255.17 386.151 C 1254.663 386.151 1254.227 386.241 1253.86 386.421 C 1253.493 386.601 1253.31 386.874 1253.31 387.241 C 1253.31 387.428 1253.377 387.614 1253.51 387.801 C 1253.637 387.981 1253.88 388.164 1254.24 388.351 C 1254.593 388.531 1255.1 388.718 1255.76 388.911 C 1256.48 389.138 1257.06 389.368 1257.5 389.601 C 1257.933 389.834 1258.25 390.104 1258.45 390.411 C 1258.643 390.718 1258.74 391.078 1258.74 391.491 C 1258.74 391.978 1258.61 392.428 1258.35 392.841 C 1258.09 393.261 1257.693 393.594 1257.16 393.841 C 1256.627 394.088 1255.957 394.211 1255.15 394.211 ZM 1265.56 394.151 C 1265 394.151 1264.543 394.058 1264.19 393.871 C 1263.837 393.678 1263.567 393.381 1263.38 392.981 C 1263.187 392.588 1263.063 392.084 1263.01 391.471 C 1262.95 390.864 1262.933 390.144 1262.96 389.311 L 1263.19 383.111 L 1264.61 382.941 L 1264.8 382.921 L 1264.82 383.061 C 1264.753 383.148 1264.7 383.234 1264.66 383.321 C 1264.613 383.414 1264.577 383.568 1264.55 383.781 L 1264.38 385.931 L 1264.44 386.271 L 1264.31 389.401 C 1264.27 390.368 1264.293 391.114 1264.38 391.641 C 1264.473 392.161 1264.633 392.521 1264.86 392.721 C 1265.087 392.914 1265.39 393.011 1265.77 393.011 C 1266.19 393.011 1266.56 392.931 1266.88 392.771 C 1267.207 392.604 1267.547 392.394 1267.9 392.141 L 1268.32 393.221 C 1267.887 393.541 1267.443 393.774 1266.99 393.921 C 1266.53 394.074 1266.053 394.151 1265.56 394.151 Z M 1261.21 386.461 L 1261.21 385.341 L 1267.46 385.341 L 1267.46 386.461 L 1261.21 386.461 ZM 1273.39 394.231 C 1272.403 394.231 1271.643 394.004 1271.11 393.551 C 1270.577 393.104 1270.31 392.531 1270.31 391.831 C 1270.31 391.364 1270.423 390.944 1270.65 390.571 C 1270.877 390.198 1271.19 389.881 1271.59 389.621 C 1271.99 389.361 1272.457 389.161 1272.99 389.021 C 1273.523 388.881 1274.087 388.811 1274.68 388.811 C 1274.893 388.811 1275.113 388.814 1275.34 388.821 C 1275.56 388.828 1275.793 388.841 1276.04 388.861 C 1276.287 388.881 1276.543 388.911 1276.81 388.951 L 1276.85 389.991 C 1276.623 389.958 1276.39 389.931 1276.15 389.911 C 1275.917 389.891 1275.687 389.874 1275.46 389.861 C 1275.233 389.848 1275.013 389.841 1274.8 389.841 C 1274.34 389.841 1273.92 389.878 1273.54 389.951 C 1273.16 390.031 1272.83 390.148 1272.55 390.301 C 1272.27 390.448 1272.057 390.644 1271.91 390.891 C 1271.757 391.131 1271.68 391.421 1271.68 391.761 C 1271.68 392.028 1271.727 392.251 1271.82 392.431 C 1271.913 392.618 1272.043 392.764 1272.21 392.871 C 1272.377 392.978 1272.57 393.058 1272.79 393.111 C 1273.01 393.158 1273.253 393.181 1273.52 393.181 C 1274.013 393.181 1274.453 393.104 1274.84 392.951 C 1275.227 392.791 1275.557 392.558 1275.83 392.251 C 1276.103 391.951 1276.31 391.578 1276.45 391.131 C 1276.59 390.691 1276.66 390.184 1276.66 389.611 C 1276.66 388.751 1276.557 388.081 1276.35 387.601 C 1276.15 387.121 1275.85 386.778 1275.45 386.571 C 1275.05 386.371 1274.54 386.271 1273.92 386.271 C 1273.5 386.271 1273.09 386.351 1272.69 386.511 C 1272.283 386.664 1271.913 386.908 1271.58 387.241 L 1270.92 386.361 C 1271.327 385.954 1271.793 385.651 1272.32 385.451 C 1272.853 385.251 1273.42 385.151 1274.02 385.151 C 1274.587 385.151 1275.103 385.221 1275.57 385.361 C 1276.043 385.494 1276.447 385.724 1276.78 386.051 C 1277.113 386.371 1277.373 386.804 1277.56 387.351 C 1277.747 387.898 1277.84 388.581 1277.84 389.401 L 1277.84 394.021 L 1276.35 394.021 L 1276.35 392.691 C 1276.19 393.011 1275.99 393.271 1275.75 393.471 C 1275.517 393.671 1275.267 393.824 1275 393.931 C 1274.733 394.044 1274.463 394.121 1274.19 394.161 C 1273.91 394.208 1273.643 394.231 1273.39 394.231 ZM 1284.56 394.151 C 1284 394.151 1283.543 394.058 1283.19 393.871 C 1282.837 393.678 1282.567 393.381 1282.38 392.981 C 1282.187 392.588 1282.063 392.084 1282.01 391.471 C 1281.95 390.864 1281.933 390.144 1281.96 389.311 L 1282.19 383.111 L 1283.61 382.941 L 1283.8 382.921 L 1283.82 383.061 C 1283.753 383.148 1283.7 383.234 1283.66 383.321 C 1283.613 383.414 1283.577 383.568 1283.55 383.781 L 1283.38 385.931 L 1283.44 386.271 L 1283.31 389.401 C 1283.27 390.368 1283.293 391.114 1283.38 391.641 C 1283.473 392.161 1283.633 392.521 1283.86 392.721 C 1284.087 392.914 1284.39 393.011 1284.77 393.011 C 1285.19 393.011 1285.56 392.931 1285.88 392.771 C 1286.207 392.604 1286.547 392.394 1286.9 392.141 L 1287.32 393.221 C 1286.887 393.541 1286.443 393.774 1285.99 393.921 C 1285.53 394.074 1285.053 394.151 1284.56 394.151 Z M 1280.21 386.461 L 1280.21 385.341 L 1286.46 385.341 L 1286.46 386.461 L 1280.21 386.461 ZM 1292.58 394.231 C 1292.24 394.231 1291.917 394.181 1291.61 394.081 C 1291.303 393.974 1291.027 393.818 1290.78 393.611 C 1290.533 393.404 1290.323 393.141 1290.15 392.821 C 1289.97 392.508 1289.833 392.128 1289.74 391.681 C 1289.647 391.241 1289.6 390.741 1289.6 390.181 L 1289.61 385.341 L 1290.94 385.341 L 1290.94 390.181 C 1290.94 390.728 1290.993 391.191 1291.1 391.571 C 1291.2 391.951 1291.34 392.254 1291.52 392.481 C 1291.707 392.708 1291.92 392.874 1292.16 392.981 C 1292.4 393.081 1292.653 393.131 1292.92 393.131 C 1293.227 393.131 1293.52 393.071 1293.8 392.951 C 1294.073 392.831 1294.323 392.651 1294.55 392.411 C 1294.77 392.164 1294.943 391.851 1295.07 391.471 C 1295.197 391.091 1295.26 390.641 1295.26 390.121 L 1295.26 385.341 L 1296.59 385.341 L 1296.59 392.671 C 1296.59 392.898 1296.6 393.124 1296.62 393.351 C 1296.64 393.571 1296.693 393.794 1296.78 394.021 L 1295.47 394.021 C 1295.403 393.868 1295.357 393.718 1295.33 393.571 C 1295.31 393.424 1295.297 393.278 1295.29 393.131 C 1295.283 392.978 1295.28 392.831 1295.28 392.691 C 1295.14 392.931 1294.973 393.148 1294.78 393.341 C 1294.593 393.528 1294.383 393.688 1294.15 393.821 C 1293.917 393.954 1293.67 394.054 1293.41 394.121 C 1293.15 394.194 1292.873 394.231 1292.58 394.231 ZM 1302.65 394.211 C 1302.17 394.211 1301.71 394.161 1301.27 394.061 C 1300.837 393.961 1300.427 393.808 1300.04 393.601 C 1299.653 393.401 1299.293 393.148 1298.96 392.841 L 1299.72 391.551 L 1299.84 391.381 L 1299.95 391.461 C 1299.977 391.561 1300.007 391.664 1300.04 391.771 C 1300.067 391.878 1300.15 392.008 1300.29 392.161 C 1300.557 392.428 1300.877 392.644 1301.25 392.811 C 1301.623 392.984 1302.103 393.071 1302.69 393.071 C 1303.157 393.071 1303.55 393.014 1303.87 392.901 C 1304.197 392.788 1304.45 392.624 1304.63 392.411 C 1304.803 392.204 1304.89 391.961 1304.89 391.681 C 1304.89 391.494 1304.853 391.328 1304.78 391.181 C 1304.7 391.034 1304.577 390.898 1304.41 390.771 C 1304.237 390.644 1304.01 390.518 1303.73 390.391 C 1303.45 390.264 1303.11 390.138 1302.71 390.011 C 1302.05 389.824 1301.473 389.604 1300.98 389.351 C 1300.487 389.098 1300.107 388.801 1299.84 388.461 C 1299.573 388.128 1299.44 387.744 1299.44 387.311 C 1299.44 386.871 1299.56 386.488 1299.8 386.161 C 1300.04 385.841 1300.397 385.588 1300.87 385.401 C 1301.35 385.221 1301.937 385.131 1302.63 385.131 C 1303.037 385.131 1303.403 385.158 1303.73 385.211 C 1304.063 385.271 1304.367 385.358 1304.64 385.471 C 1304.92 385.584 1305.177 385.728 1305.41 385.901 C 1305.643 386.068 1305.87 386.268 1306.09 386.501 L 1305.31 387.451 L 1305.18 387.601 L 1305.08 387.501 C 1305.067 387.401 1305.04 387.304 1305 387.211 C 1304.953 387.118 1304.86 387.001 1304.72 386.861 C 1304.427 386.634 1304.097 386.458 1303.73 386.331 C 1303.363 386.211 1303.01 386.151 1302.67 386.151 C 1302.163 386.151 1301.727 386.241 1301.36 386.421 C 1300.993 386.601 1300.81 386.874 1300.81 387.241 C 1300.81 387.428 1300.877 387.614 1301.01 387.801 C 1301.137 387.981 1301.38 388.164 1301.74 388.351 C 1302.093 388.531 1302.6 388.718 1303.26 388.911 C 1303.98 389.138 1304.56 389.368 1305 389.601 C 1305.433 389.834 1305.75 390.104 1305.95 390.411 C 1306.143 390.718 1306.24 391.078 1306.24 391.491 C 1306.24 391.978 1306.11 392.428 1305.85 392.841 C 1305.59 393.261 1305.193 393.594 1304.66 393.841 C 1304.127 394.088 1303.457 394.211 1302.65 394.211 Z" transform="matrix(1, 0, 0, 1, -855.375, -340.921875)" style="fill: rgb(90, 142, 255); white-space: pre;"/>
  <path d="M 1252.93 416.191 L 1251.52 416.191 L 1251.52 404.341 L 1252.91 404.341 L 1252.91 406.051 C 1253.05 405.604 1253.25 405.241 1253.51 404.961 C 1253.77 404.688 1254.073 404.484 1254.42 404.351 C 1254.767 404.218 1255.143 404.151 1255.55 404.151 C 1256.03 404.151 1256.49 404.241 1256.93 404.421 C 1257.363 404.608 1257.747 404.884 1258.08 405.251 C 1258.42 405.618 1258.687 406.081 1258.88 406.641 C 1259.08 407.194 1259.18 407.851 1259.18 408.611 C 1259.18 409.371 1259.073 410.044 1258.86 410.631 C 1258.653 411.211 1258.377 411.694 1258.03 412.081 C 1257.683 412.468 1257.29 412.758 1256.85 412.951 C 1256.41 413.151 1255.963 413.251 1255.51 413.251 C 1255.17 413.251 1254.837 413.198 1254.51 413.091 C 1254.19 412.978 1253.897 412.818 1253.63 412.611 C 1253.363 412.404 1253.13 412.161 1252.93 411.881 L 1252.93 416.191 Z M 1255.28 412.031 C 1255.587 412.031 1255.883 411.978 1256.17 411.871 C 1256.463 411.764 1256.73 411.584 1256.97 411.331 C 1257.21 411.078 1257.4 410.731 1257.54 410.291 C 1257.68 409.858 1257.75 409.318 1257.75 408.671 C 1257.75 407.971 1257.663 407.378 1257.49 406.891 C 1257.31 406.404 1257.053 406.028 1256.72 405.761 C 1256.38 405.494 1255.97 405.351 1255.49 405.331 C 1255.137 405.304 1254.803 405.354 1254.49 405.481 C 1254.183 405.608 1253.91 405.814 1253.67 406.101 C 1253.43 406.394 1253.243 406.778 1253.11 407.251 C 1252.977 407.731 1252.91 408.304 1252.91 408.971 C 1252.923 409.378 1252.967 409.748 1253.04 410.081 C 1253.113 410.408 1253.22 410.694 1253.36 410.941 C 1253.5 411.188 1253.667 411.391 1253.86 411.551 C 1254.047 411.711 1254.26 411.831 1254.5 411.911 C 1254.74 411.991 1255 412.031 1255.28 412.031 ZM 1265.05 413.211 C 1264.417 413.211 1263.84 413.114 1263.32 412.921 C 1262.8 412.721 1262.353 412.431 1261.98 412.051 C 1261.607 411.671 1261.317 411.201 1261.11 410.641 C 1260.91 410.074 1260.81 409.431 1260.81 408.711 C 1260.81 407.971 1260.913 407.318 1261.12 406.751 C 1261.333 406.178 1261.62 405.701 1261.98 405.321 C 1262.34 404.934 1262.763 404.638 1263.25 404.431 C 1263.737 404.231 1264.253 404.131 1264.8 404.131 C 1265.293 404.131 1265.757 404.214 1266.19 404.381 C 1266.617 404.541 1266.99 404.791 1267.31 405.131 C 1267.623 405.464 1267.873 405.891 1268.06 406.411 C 1268.247 406.931 1268.34 407.544 1268.34 408.251 C 1268.34 408.351 1268.337 408.454 1268.33 408.561 C 1268.323 408.674 1268.313 408.781 1268.3 408.881 L 1262.12 408.881 C 1262.147 409.434 1262.243 409.918 1262.41 410.331 C 1262.57 410.744 1262.783 411.081 1263.05 411.341 C 1263.317 411.601 1263.623 411.794 1263.97 411.921 C 1264.323 412.048 1264.697 412.111 1265.09 412.111 C 1265.39 412.111 1265.673 412.074 1265.94 412.001 C 1266.207 411.934 1266.457 411.828 1266.69 411.681 C 1266.923 411.534 1267.137 411.354 1267.33 411.141 L 1268.09 411.881 C 1267.85 412.174 1267.573 412.421 1267.26 412.621 C 1266.953 412.821 1266.617 412.971 1266.25 413.071 C 1265.877 413.164 1265.477 413.211 1265.05 413.211 Z M 1262.18 407.811 L 1266.95 407.811 C 1266.95 407.411 1266.897 407.048 1266.79 406.721 C 1266.683 406.401 1266.53 406.124 1266.33 405.891 C 1266.137 405.651 1265.903 405.471 1265.63 405.351 C 1265.357 405.231 1265.05 405.171 1264.71 405.171 C 1264.403 405.171 1264.113 405.224 1263.84 405.331 C 1263.567 405.431 1263.317 405.591 1263.09 405.811 C 1262.863 406.031 1262.67 406.308 1262.51 406.641 C 1262.35 406.968 1262.24 407.358 1262.18 407.811 ZM 1272.08 413.021 L 1270.75 413.021 L 1270.75 404.341 L 1272.08 404.341 L 1272.08 405.881 C 1272.307 405.521 1272.573 405.211 1272.88 404.951 C 1273.18 404.691 1273.513 404.491 1273.88 404.351 C 1274.247 404.204 1274.627 404.131 1275.02 404.131 C 1275.507 404.131 1275.937 404.251 1276.31 404.491 C 1276.69 404.731 1276.997 405.118 1277.23 405.651 C 1277.457 406.184 1277.57 406.888 1277.57 407.761 L 1277.57 413.021 L 1276.24 413.021 L 1276.24 407.801 C 1276.24 407.188 1276.17 406.701 1276.03 406.341 C 1275.89 405.981 1275.7 405.721 1275.46 405.561 C 1275.22 405.408 1274.947 405.331 1274.64 405.331 C 1274.353 405.331 1274.06 405.394 1273.76 405.521 C 1273.46 405.648 1273.183 405.828 1272.93 406.061 C 1272.677 406.294 1272.473 406.574 1272.32 406.901 C 1272.16 407.234 1272.08 407.608 1272.08 408.021 L 1272.08 413.021 ZM 1283.33 413.211 C 1282.883 413.211 1282.447 413.114 1282.02 412.921 C 1281.6 412.734 1281.217 412.451 1280.87 412.071 C 1280.517 411.691 1280.24 411.211 1280.04 410.631 C 1279.833 410.044 1279.73 409.364 1279.73 408.591 C 1279.73 407.798 1279.84 407.118 1280.06 406.551 C 1280.273 405.991 1280.557 405.528 1280.91 405.161 C 1281.263 404.801 1281.657 404.538 1282.09 404.371 C 1282.523 404.198 1282.96 404.111 1283.4 404.111 C 1283.807 404.111 1284.17 404.174 1284.49 404.301 C 1284.817 404.428 1285.103 404.601 1285.35 404.821 C 1285.597 405.041 1285.79 405.304 1285.93 405.611 L 1285.93 400.391 L 1287.18 400.391 L 1287.37 400.391 L 1287.37 400.521 C 1287.297 400.594 1287.25 400.678 1287.23 400.771 C 1287.21 400.858 1287.2 401.008 1287.2 401.221 L 1287.22 411.671 C 1287.22 411.898 1287.23 412.124 1287.25 412.351 C 1287.27 412.571 1287.323 412.794 1287.41 413.021 L 1286.06 413.021 C 1286 412.868 1285.957 412.714 1285.93 412.561 C 1285.903 412.414 1285.887 412.268 1285.88 412.121 C 1285.873 411.974 1285.87 411.824 1285.87 411.671 C 1285.697 411.978 1285.483 412.248 1285.23 412.481 C 1284.977 412.714 1284.69 412.894 1284.37 413.021 C 1284.057 413.148 1283.71 413.211 1283.33 413.211 Z M 1283.54 412.011 C 1283.953 412.011 1284.307 411.928 1284.6 411.761 C 1284.893 411.588 1285.127 411.344 1285.3 411.031 C 1285.48 410.724 1285.61 410.364 1285.69 409.951 C 1285.77 409.538 1285.81 409.098 1285.81 408.631 C 1285.81 407.984 1285.73 407.404 1285.57 406.891 C 1285.403 406.378 1285.143 405.974 1284.79 405.681 C 1284.437 405.381 1283.98 405.231 1283.42 405.231 C 1283.04 405.231 1282.7 405.304 1282.4 405.451 C 1282.107 405.598 1281.86 405.811 1281.66 406.091 C 1281.467 406.364 1281.32 406.694 1281.22 407.081 C 1281.12 407.468 1281.07 407.901 1281.07 408.381 C 1281.07 409.108 1281.163 409.741 1281.35 410.281 C 1281.537 410.828 1281.817 411.254 1282.19 411.561 C 1282.557 411.861 1283.007 412.011 1283.54 412.011 ZM 1295.9 413.021 L 1290.28 413.021 L 1290.28 411.921 L 1292.5 411.921 L 1292.5 405.441 L 1290.39 405.441 L 1290.39 404.341 L 1293.87 404.341 L 1293.87 411.921 L 1295.9 411.921 L 1295.9 413.021 Z M 1293.11 402.511 C 1292.843 402.511 1292.617 402.418 1292.43 402.231 C 1292.237 402.038 1292.14 401.808 1292.14 401.541 C 1292.14 401.268 1292.233 401.034 1292.42 400.841 C 1292.6 400.654 1292.83 400.561 1293.11 400.561 C 1293.377 400.561 1293.607 400.658 1293.8 400.851 C 1294 401.044 1294.1 401.274 1294.1 401.541 C 1294.1 401.808 1294 402.038 1293.8 402.231 C 1293.607 402.418 1293.377 402.511 1293.11 402.511 ZM 1300.58 413.021 L 1299.25 413.021 L 1299.25 404.341 L 1300.58 404.341 L 1300.58 405.881 C 1300.807 405.521 1301.073 405.211 1301.38 404.951 C 1301.68 404.691 1302.013 404.491 1302.38 404.351 C 1302.747 404.204 1303.127 404.131 1303.52 404.131 C 1304.007 404.131 1304.437 404.251 1304.81 404.491 C 1305.19 404.731 1305.497 405.118 1305.73 405.651 C 1305.957 406.184 1306.07 406.888 1306.07 407.761 L 1306.07 413.021 L 1304.74 413.021 L 1304.74 407.801 C 1304.74 407.188 1304.67 406.701 1304.53 406.341 C 1304.39 405.981 1304.2 405.721 1303.96 405.561 C 1303.72 405.408 1303.447 405.331 1303.14 405.331 C 1302.853 405.331 1302.56 405.394 1302.26 405.521 C 1301.96 405.648 1301.683 405.828 1301.43 406.061 C 1301.177 406.294 1300.973 406.574 1300.82 406.901 C 1300.66 407.234 1300.58 407.608 1300.58 408.021 L 1300.58 413.021 ZM 1312.07 416.291 C 1311.463 416.291 1310.917 416.244 1310.43 416.151 C 1309.943 416.051 1309.527 415.911 1309.18 415.731 C 1308.827 415.544 1308.56 415.311 1308.38 415.031 C 1308.193 414.758 1308.1 414.431 1308.1 414.051 C 1308.1 413.691 1308.177 413.374 1308.33 413.101 C 1308.483 412.821 1308.683 412.588 1308.93 412.401 C 1309.177 412.221 1309.447 412.084 1309.74 411.991 L 1310.31 412.341 C 1310.077 412.481 1309.893 412.618 1309.76 412.751 C 1309.62 412.891 1309.517 413.054 1309.45 413.241 C 1309.39 413.421 1309.36 413.638 1309.36 413.891 C 1309.36 414.111 1309.423 414.304 1309.55 414.471 C 1309.677 414.644 1309.857 414.788 1310.09 414.901 C 1310.323 415.014 1310.607 415.104 1310.94 415.171 C 1311.28 415.231 1311.663 415.261 1312.09 415.261 C 1312.677 415.261 1313.15 415.201 1313.51 415.081 C 1313.87 414.961 1314.137 414.798 1314.31 414.591 C 1314.49 414.378 1314.58 414.138 1314.58 413.871 C 1314.58 413.598 1314.53 413.371 1314.43 413.191 C 1314.33 413.011 1314.12 412.878 1313.8 412.791 C 1313.487 412.704 1313.007 412.661 1312.36 412.661 C 1311.913 412.661 1311.507 412.641 1311.14 412.601 C 1310.773 412.568 1310.443 412.504 1310.15 412.411 C 1309.863 412.324 1309.62 412.214 1309.42 412.081 C 1309.227 411.948 1309.08 411.784 1308.98 411.591 C 1308.873 411.404 1308.82 411.184 1308.82 410.931 C 1308.82 410.604 1308.913 410.288 1309.1 409.981 C 1309.28 409.674 1309.53 409.384 1309.85 409.111 L 1310.5 409.621 C 1310.373 409.761 1310.27 409.884 1310.19 409.991 C 1310.117 410.098 1310.063 410.198 1310.03 410.291 C 1309.997 410.391 1309.98 410.498 1309.98 410.611 C 1309.98 410.811 1310.06 410.974 1310.22 411.101 C 1310.38 411.228 1310.657 411.321 1311.05 411.381 C 1311.443 411.434 1311.973 411.461 1312.64 411.461 C 1313.313 411.461 1313.86 411.514 1314.28 411.621 C 1314.693 411.734 1315.013 411.891 1315.24 412.091 C 1315.46 412.291 1315.613 412.524 1315.7 412.791 C 1315.793 413.058 1315.84 413.351 1315.84 413.671 C 1315.84 414.011 1315.773 414.334 1315.64 414.641 C 1315.507 414.954 1315.293 415.234 1315 415.481 C 1314.707 415.728 1314.32 415.924 1313.84 416.071 C 1313.36 416.218 1312.77 416.291 1312.07 416.291 Z M 1311.67 410.081 C 1311.05 410.081 1310.513 409.944 1310.06 409.671 C 1309.6 409.398 1309.247 409.028 1309 408.561 C 1308.753 408.101 1308.63 407.594 1308.63 407.041 C 1308.63 406.481 1308.753 405.974 1309 405.521 C 1309.247 405.061 1309.6 404.694 1310.06 404.421 C 1310.513 404.148 1311.05 404.011 1311.67 404.011 C 1312.303 404.011 1312.847 404.148 1313.3 404.421 C 1313.747 404.694 1314.093 405.061 1314.34 405.521 C 1314.587 405.974 1314.71 406.481 1314.71 407.041 C 1314.71 407.594 1314.587 408.101 1314.34 408.561 C 1314.093 409.028 1313.747 409.398 1313.3 409.671 C 1312.847 409.944 1312.303 410.081 1311.67 410.081 Z M 1311.67 408.941 C 1312.037 408.941 1312.363 408.854 1312.65 408.681 C 1312.937 408.508 1313.163 408.274 1313.33 407.981 C 1313.49 407.694 1313.57 407.381 1313.57 407.041 C 1313.57 406.681 1313.49 406.361 1313.33 406.081 C 1313.163 405.794 1312.937 405.564 1312.65 405.391 C 1312.363 405.224 1312.037 405.141 1311.67 405.141 C 1311.303 405.141 1310.98 405.224 1310.7 405.391 C 1310.413 405.564 1310.187 405.794 1310.02 406.081 C 1309.853 406.361 1309.77 406.681 1309.77 407.041 C 1309.77 407.381 1309.853 407.694 1310.02 407.981 C 1310.187 408.274 1310.413 408.508 1310.7 408.681 C 1310.98 408.854 1311.303 408.941 1311.67 408.941 Z M 1314.2 405.741 L 1313.67 405.121 C 1314.037 404.748 1314.42 404.478 1314.82 404.311 C 1315.22 404.138 1315.69 404.071 1316.23 404.111 L 1316.41 405.231 C 1315.99 405.191 1315.597 405.204 1315.23 405.271 C 1314.863 405.331 1314.52 405.488 1314.2 405.741 Z" transform="matrix(1, 0, 0, 1, -855.375, -340.921875)" style="fill: rgb(90, 142, 255); white-space: pre;"/>
  <path d="M 1337.99 363.583 L 1339.51 363.583 C 1339.51 364.343 1339.507 364.95 1339.5 365.403 C 1339.487 365.856 1339.463 366.24 1339.43 366.553 C 1339.397 366.86 1339.363 367.156 1339.33 367.443 C 1339.29 367.73 1339.25 368.076 1339.21 368.483 L 1338.3 368.483 C 1338.26 368.076 1338.22 367.73 1338.18 367.443 C 1338.147 367.156 1338.113 366.863 1338.08 366.563 C 1338.047 366.256 1338.023 365.873 1338.01 365.413 C 1337.997 364.953 1337.99 364.343 1337.99 363.583 Z M 1340.85 363.583 L 1342.36 363.583 C 1342.36 364.343 1342.357 364.95 1342.35 365.403 C 1342.337 365.856 1342.313 366.24 1342.28 366.553 C 1342.247 366.86 1342.213 367.156 1342.18 367.443 C 1342.14 367.73 1342.1 368.076 1342.06 368.483 L 1341.15 368.483 C 1341.11 368.076 1341.07 367.73 1341.03 367.443 C 1340.997 367.156 1340.963 366.863 1340.93 366.563 C 1340.897 366.256 1340.873 365.873 1340.86 365.413 C 1340.853 364.953 1340.85 364.343 1340.85 363.583 ZM 1349.68 376.363 C 1348.893 376.363 1348.2 376.17 1347.6 375.783 C 1347 375.396 1346.527 374.866 1346.18 374.193 C 1345.84 373.513 1345.67 372.736 1345.67 371.863 C 1345.67 370.976 1345.84 370.193 1346.18 369.513 C 1346.527 368.84 1347 368.31 1347.6 367.923 C 1348.2 367.536 1348.893 367.343 1349.68 367.343 C 1350.467 367.343 1351.16 367.536 1351.76 367.923 C 1352.36 368.31 1352.833 368.84 1353.18 369.513 C 1353.52 370.193 1353.69 370.976 1353.69 371.863 C 1353.69 372.736 1353.52 373.513 1353.18 374.193 C 1352.833 374.866 1352.36 375.396 1351.76 375.783 C 1351.16 376.17 1350.467 376.363 1349.68 376.363 Z M 1349.68 375.223 C 1350.187 375.223 1350.63 375.076 1351.01 374.783 C 1351.39 374.496 1351.69 374.1 1351.91 373.593 C 1352.13 373.086 1352.24 372.503 1352.24 371.843 C 1352.24 371.183 1352.13 370.6 1351.91 370.093 C 1351.69 369.586 1351.39 369.19 1351.01 368.903 C 1350.63 368.623 1350.187 368.483 1349.68 368.483 C 1349.187 368.483 1348.747 368.623 1348.36 368.903 C 1347.973 369.19 1347.67 369.586 1347.45 370.093 C 1347.23 370.6 1347.12 371.183 1347.12 371.843 C 1347.12 372.503 1347.23 373.086 1347.45 373.593 C 1347.67 374.1 1347.973 374.496 1348.36 374.783 C 1348.747 375.076 1349.187 375.223 1349.68 375.223 ZM 1358.63 376.423 C 1358.29 376.423 1357.967 376.373 1357.66 376.273 C 1357.353 376.166 1357.077 376.01 1356.83 375.803 C 1356.583 375.596 1356.373 375.333 1356.2 375.013 C 1356.02 374.7 1355.883 374.32 1355.79 373.873 C 1355.697 373.433 1355.65 372.933 1355.65 372.373 L 1355.66 367.533 L 1356.99 367.533 L 1356.99 372.373 C 1356.99 372.92 1357.043 373.383 1357.15 373.763 C 1357.25 374.143 1357.39 374.446 1357.57 374.673 C 1357.757 374.9 1357.97 375.066 1358.21 375.173 C 1358.45 375.273 1358.703 375.323 1358.97 375.323 C 1359.277 375.323 1359.57 375.263 1359.85 375.143 C 1360.123 375.023 1360.373 374.843 1360.6 374.603 C 1360.82 374.356 1360.993 374.043 1361.12 373.663 C 1361.247 373.283 1361.31 372.833 1361.31 372.313 L 1361.31 367.533 L 1362.64 367.533 L 1362.64 374.863 C 1362.64 375.09 1362.65 375.316 1362.67 375.543 C 1362.69 375.763 1362.743 375.986 1362.83 376.213 L 1361.52 376.213 C 1361.453 376.06 1361.407 375.91 1361.38 375.763 C 1361.36 375.616 1361.347 375.47 1361.34 375.323 C 1361.333 375.17 1361.33 375.023 1361.33 374.883 C 1361.19 375.123 1361.023 375.34 1360.83 375.533 C 1360.643 375.72 1360.433 375.88 1360.2 376.013 C 1359.967 376.146 1359.72 376.246 1359.46 376.313 C 1359.2 376.386 1358.923 376.423 1358.63 376.423 ZM 1369.61 376.343 C 1369.05 376.343 1368.593 376.25 1368.24 376.063 C 1367.887 375.87 1367.617 375.573 1367.43 375.173 C 1367.237 374.78 1367.113 374.276 1367.06 373.663 C 1367 373.056 1366.983 372.336 1367.01 371.503 L 1367.24 365.303 L 1368.66 365.133 L 1368.85 365.113 L 1368.87 365.253 C 1368.803 365.34 1368.75 365.426 1368.71 365.513 C 1368.663 365.606 1368.627 365.76 1368.6 365.973 L 1368.43 368.123 L 1368.49 368.463 L 1368.36 371.593 C 1368.32 372.56 1368.343 373.306 1368.43 373.833 C 1368.523 374.353 1368.683 374.713 1368.91 374.913 C 1369.137 375.106 1369.44 375.203 1369.82 375.203 C 1370.24 375.203 1370.61 375.123 1370.93 374.963 C 1371.257 374.796 1371.597 374.586 1371.95 374.333 L 1372.37 375.413 C 1371.937 375.733 1371.493 375.966 1371.04 376.113 C 1370.58 376.266 1370.103 376.343 1369.61 376.343 Z M 1365.26 368.653 L 1365.26 367.533 L 1371.51 367.533 L 1371.51 368.653 L 1365.26 368.653 ZM 1375.98 379.383 L 1374.57 379.383 L 1374.57 367.533 L 1375.96 367.533 L 1375.96 369.243 C 1376.1 368.796 1376.3 368.433 1376.56 368.153 C 1376.82 367.88 1377.123 367.676 1377.47 367.543 C 1377.817 367.41 1378.193 367.343 1378.6 367.343 C 1379.08 367.343 1379.54 367.433 1379.98 367.613 C 1380.413 367.8 1380.797 368.076 1381.13 368.443 C 1381.47 368.81 1381.737 369.273 1381.93 369.833 C 1382.13 370.386 1382.23 371.043 1382.23 371.803 C 1382.23 372.563 1382.123 373.236 1381.91 373.823 C 1381.703 374.403 1381.427 374.886 1381.08 375.273 C 1380.733 375.66 1380.34 375.95 1379.9 376.143 C 1379.46 376.343 1379.013 376.443 1378.56 376.443 C 1378.22 376.443 1377.887 376.39 1377.56 376.283 C 1377.24 376.17 1376.947 376.01 1376.68 375.803 C 1376.413 375.596 1376.18 375.353 1375.98 375.073 L 1375.98 379.383 Z M 1378.33 375.223 C 1378.637 375.223 1378.933 375.17 1379.22 375.063 C 1379.513 374.956 1379.78 374.776 1380.02 374.523 C 1380.26 374.27 1380.45 373.923 1380.59 373.483 C 1380.73 373.05 1380.8 372.51 1380.8 371.863 C 1380.8 371.163 1380.713 370.57 1380.54 370.083 C 1380.36 369.596 1380.103 369.22 1379.77 368.953 C 1379.43 368.686 1379.02 368.543 1378.54 368.523 C 1378.187 368.496 1377.853 368.546 1377.54 368.673 C 1377.233 368.8 1376.96 369.006 1376.72 369.293 C 1376.48 369.586 1376.293 369.97 1376.16 370.443 C 1376.027 370.923 1375.96 371.496 1375.96 372.163 C 1375.973 372.57 1376.017 372.94 1376.09 373.273 C 1376.163 373.6 1376.27 373.886 1376.41 374.133 C 1376.55 374.38 1376.717 374.583 1376.91 374.743 C 1377.097 374.903 1377.31 375.023 1377.55 375.103 C 1377.79 375.183 1378.05 375.223 1378.33 375.223 ZM 1387.13 376.423 C 1386.79 376.423 1386.467 376.373 1386.16 376.273 C 1385.853 376.166 1385.577 376.01 1385.33 375.803 C 1385.083 375.596 1384.873 375.333 1384.7 375.013 C 1384.52 374.7 1384.383 374.32 1384.29 373.873 C 1384.197 373.433 1384.15 372.933 1384.15 372.373 L 1384.16 367.533 L 1385.49 367.533 L 1385.49 372.373 C 1385.49 372.92 1385.543 373.383 1385.65 373.763 C 1385.75 374.143 1385.89 374.446 1386.07 374.673 C 1386.257 374.9 1386.47 375.066 1386.71 375.173 C 1386.95 375.273 1387.203 375.323 1387.47 375.323 C 1387.777 375.323 1388.07 375.263 1388.35 375.143 C 1388.623 375.023 1388.873 374.843 1389.1 374.603 C 1389.32 374.356 1389.493 374.043 1389.62 373.663 C 1389.747 373.283 1389.81 372.833 1389.81 372.313 L 1389.81 367.533 L 1391.14 367.533 L 1391.14 374.863 C 1391.14 375.09 1391.15 375.316 1391.17 375.543 C 1391.19 375.763 1391.243 375.986 1391.33 376.213 L 1390.02 376.213 C 1389.953 376.06 1389.907 375.91 1389.88 375.763 C 1389.86 375.616 1389.847 375.47 1389.84 375.323 C 1389.833 375.17 1389.83 375.023 1389.83 374.883 C 1389.69 375.123 1389.523 375.34 1389.33 375.533 C 1389.143 375.72 1388.933 375.88 1388.7 376.013 C 1388.467 376.146 1388.22 376.246 1387.96 376.313 C 1387.7 376.386 1387.423 376.423 1387.13 376.423 ZM 1398.11 376.343 C 1397.55 376.343 1397.093 376.25 1396.74 376.063 C 1396.387 375.87 1396.117 375.573 1395.93 375.173 C 1395.737 374.78 1395.613 374.276 1395.56 373.663 C 1395.5 373.056 1395.483 372.336 1395.51 371.503 L 1395.74 365.303 L 1397.16 365.133 L 1397.35 365.113 L 1397.37 365.253 C 1397.303 365.34 1397.25 365.426 1397.21 365.513 C 1397.163 365.606 1397.127 365.76 1397.1 365.973 L 1396.93 368.123 L 1396.99 368.463 L 1396.86 371.593 C 1396.82 372.56 1396.843 373.306 1396.93 373.833 C 1397.023 374.353 1397.183 374.713 1397.41 374.913 C 1397.637 375.106 1397.94 375.203 1398.32 375.203 C 1398.74 375.203 1399.11 375.123 1399.43 374.963 C 1399.757 374.796 1400.097 374.586 1400.45 374.333 L 1400.87 375.413 C 1400.437 375.733 1399.993 375.966 1399.54 376.113 C 1399.08 376.266 1398.603 376.343 1398.11 376.343 Z M 1393.76 368.653 L 1393.76 367.533 L 1400.01 367.533 L 1400.01 368.653 L 1393.76 368.653 ZM 1404.49 363.583 L 1406.01 363.583 C 1406.01 364.343 1406.007 364.95 1406 365.403 C 1405.987 365.856 1405.963 366.24 1405.93 366.553 C 1405.897 366.86 1405.863 367.156 1405.83 367.443 C 1405.79 367.73 1405.75 368.076 1405.71 368.483 L 1404.8 368.483 C 1404.76 368.076 1404.72 367.73 1404.68 367.443 C 1404.647 367.156 1404.613 366.863 1404.58 366.563 C 1404.547 366.256 1404.523 365.873 1404.51 365.413 C 1404.497 364.953 1404.49 364.343 1404.49 363.583 Z M 1407.35 363.583 L 1408.86 363.583 C 1408.86 364.343 1408.857 364.95 1408.85 365.403 C 1408.837 365.856 1408.813 366.24 1408.78 366.553 C 1408.747 366.86 1408.713 367.156 1408.68 367.443 C 1408.64 367.73 1408.6 368.076 1408.56 368.483 L 1407.65 368.483 C 1407.61 368.076 1407.57 367.73 1407.53 367.443 C 1407.497 367.156 1407.463 366.863 1407.43 366.563 C 1407.397 366.256 1407.373 365.873 1407.36 365.413 C 1407.353 364.953 1407.35 364.343 1407.35 363.583 Z" transform="matrix(1, 0, 0, 1, -865.2362060546875, -342.1672058105469)" style="fill: url(#handler-border); white-space: pre;"/>
  <path d="M 1337.99 382.583 L 1339.51 382.583 C 1339.51 383.343 1339.507 383.95 1339.5 384.403 C 1339.487 384.856 1339.463 385.24 1339.43 385.553 C 1339.397 385.86 1339.363 386.156 1339.33 386.443 C 1339.29 386.73 1339.25 387.076 1339.21 387.483 L 1338.3 387.483 C 1338.26 387.076 1338.22 386.73 1338.18 386.443 C 1338.147 386.156 1338.113 385.863 1338.08 385.563 C 1338.047 385.256 1338.023 384.873 1338.01 384.413 C 1337.997 383.953 1337.99 383.343 1337.99 382.583 Z M 1340.85 382.583 L 1342.36 382.583 C 1342.36 383.343 1342.357 383.95 1342.35 384.403 C 1342.337 384.856 1342.313 385.24 1342.28 385.553 C 1342.247 385.86 1342.213 386.156 1342.18 386.443 C 1342.14 386.73 1342.1 387.076 1342.06 387.483 L 1341.15 387.483 C 1341.11 387.076 1341.07 386.73 1341.03 386.443 C 1340.997 386.156 1340.963 385.863 1340.93 385.563 C 1340.897 385.256 1340.873 384.873 1340.86 384.413 C 1340.853 383.953 1340.85 383.343 1340.85 382.583 ZM 1349.7 395.403 C 1349.22 395.403 1348.76 395.353 1348.32 395.253 C 1347.887 395.153 1347.477 395 1347.09 394.793 C 1346.703 394.593 1346.343 394.34 1346.01 394.033 L 1346.77 392.743 L 1346.89 392.573 L 1347 392.653 C 1347.027 392.753 1347.057 392.856 1347.09 392.963 C 1347.117 393.07 1347.2 393.2 1347.34 393.353 C 1347.607 393.62 1347.927 393.836 1348.3 394.003 C 1348.673 394.176 1349.153 394.263 1349.74 394.263 C 1350.207 394.263 1350.6 394.206 1350.92 394.093 C 1351.247 393.98 1351.5 393.816 1351.68 393.603 C 1351.853 393.396 1351.94 393.153 1351.94 392.873 C 1351.94 392.686 1351.903 392.52 1351.83 392.373 C 1351.75 392.226 1351.627 392.09 1351.46 391.963 C 1351.287 391.836 1351.06 391.71 1350.78 391.583 C 1350.5 391.456 1350.16 391.33 1349.76 391.203 C 1349.1 391.016 1348.523 390.796 1348.03 390.543 C 1347.537 390.29 1347.157 389.993 1346.89 389.653 C 1346.623 389.32 1346.49 388.936 1346.49 388.503 C 1346.49 388.063 1346.61 387.68 1346.85 387.353 C 1347.09 387.033 1347.447 386.78 1347.92 386.593 C 1348.4 386.413 1348.987 386.323 1349.68 386.323 C 1350.087 386.323 1350.453 386.35 1350.78 386.403 C 1351.113 386.463 1351.417 386.55 1351.69 386.663 C 1351.97 386.776 1352.227 386.92 1352.46 387.093 C 1352.693 387.26 1352.92 387.46 1353.14 387.693 L 1352.36 388.643 L 1352.23 388.793 L 1352.13 388.693 C 1352.117 388.593 1352.09 388.496 1352.05 388.403 C 1352.003 388.31 1351.91 388.193 1351.77 388.053 C 1351.477 387.826 1351.147 387.65 1350.78 387.523 C 1350.413 387.403 1350.06 387.343 1349.72 387.343 C 1349.213 387.343 1348.777 387.433 1348.41 387.613 C 1348.043 387.793 1347.86 388.066 1347.86 388.433 C 1347.86 388.62 1347.927 388.806 1348.06 388.993 C 1348.187 389.173 1348.43 389.356 1348.79 389.543 C 1349.143 389.723 1349.65 389.91 1350.31 390.103 C 1351.03 390.33 1351.61 390.56 1352.05 390.793 C 1352.483 391.026 1352.8 391.296 1353 391.603 C 1353.193 391.91 1353.29 392.27 1353.29 392.683 C 1353.29 393.17 1353.16 393.62 1352.9 394.033 C 1352.64 394.453 1352.243 394.786 1351.71 395.033 C 1351.177 395.28 1350.507 395.403 1349.7 395.403 ZM 1358.63 395.423 C 1358.29 395.423 1357.967 395.373 1357.66 395.273 C 1357.353 395.166 1357.077 395.01 1356.83 394.803 C 1356.583 394.596 1356.373 394.333 1356.2 394.013 C 1356.02 393.7 1355.883 393.32 1355.79 392.873 C 1355.697 392.433 1355.65 391.933 1355.65 391.373 L 1355.66 386.533 L 1356.99 386.533 L 1356.99 391.373 C 1356.99 391.92 1357.043 392.383 1357.15 392.763 C 1357.25 393.143 1357.39 393.446 1357.57 393.673 C 1357.757 393.9 1357.97 394.066 1358.21 394.173 C 1358.45 394.273 1358.703 394.323 1358.97 394.323 C 1359.277 394.323 1359.57 394.263 1359.85 394.143 C 1360.123 394.023 1360.373 393.843 1360.6 393.603 C 1360.82 393.356 1360.993 393.043 1361.12 392.663 C 1361.247 392.283 1361.31 391.833 1361.31 391.313 L 1361.31 386.533 L 1362.64 386.533 L 1362.64 393.863 C 1362.64 394.09 1362.65 394.316 1362.67 394.543 C 1362.69 394.763 1362.743 394.986 1362.83 395.213 L 1361.52 395.213 C 1361.453 395.06 1361.407 394.91 1361.38 394.763 C 1361.36 394.616 1361.347 394.47 1361.34 394.323 C 1361.333 394.17 1361.33 394.023 1361.33 393.883 C 1361.19 394.123 1361.023 394.34 1360.83 394.533 C 1360.643 394.72 1360.433 394.88 1360.2 395.013 C 1359.967 395.146 1359.72 395.246 1359.46 395.313 C 1359.2 395.386 1358.923 395.423 1358.63 395.423 ZM 1369.35 395.423 C 1368.71 395.423 1368.127 395.31 1367.6 395.083 C 1367.067 394.856 1366.607 394.54 1366.22 394.133 C 1365.833 393.726 1365.533 393.246 1365.32 392.693 C 1365.1 392.146 1364.99 391.543 1364.99 390.883 C 1364.99 390.236 1365.1 389.636 1365.32 389.083 C 1365.533 388.536 1365.833 388.06 1366.22 387.653 C 1366.607 387.246 1367.067 386.93 1367.6 386.703 C 1368.127 386.476 1368.703 386.363 1369.33 386.363 C 1370.037 386.363 1370.673 386.503 1371.24 386.783 C 1371.8 387.07 1372.257 387.466 1372.61 387.973 L 1371.76 388.813 L 1371.62 388.943 L 1371.53 388.843 C 1371.53 388.743 1371.507 388.65 1371.46 388.563 C 1371.42 388.476 1371.323 388.356 1371.17 388.203 C 1370.89 387.95 1370.593 387.773 1370.28 387.673 C 1369.96 387.573 1369.59 387.523 1369.17 387.523 C 1368.803 387.523 1368.457 387.596 1368.13 387.743 C 1367.803 387.896 1367.51 388.116 1367.25 388.403 C 1366.99 388.69 1366.783 389.033 1366.63 389.433 C 1366.477 389.84 1366.4 390.29 1366.4 390.783 C 1366.4 391.276 1366.477 391.73 1366.63 392.143 C 1366.783 392.556 1366.99 392.916 1367.25 393.223 C 1367.517 393.523 1367.837 393.76 1368.21 393.933 C 1368.583 394.1 1368.987 394.183 1369.42 394.183 C 1369.713 394.183 1369.993 394.143 1370.26 394.063 C 1370.527 393.983 1370.78 393.863 1371.02 393.703 C 1371.26 393.543 1371.48 393.35 1371.68 393.123 L 1372.48 394.053 C 1372.047 394.513 1371.57 394.856 1371.05 395.083 C 1370.523 395.31 1369.957 395.423 1369.35 395.423 ZM 1378.85 395.423 C 1378.21 395.423 1377.627 395.31 1377.1 395.083 C 1376.567 394.856 1376.107 394.54 1375.72 394.133 C 1375.333 393.726 1375.033 393.246 1374.82 392.693 C 1374.6 392.146 1374.49 391.543 1374.49 390.883 C 1374.49 390.236 1374.6 389.636 1374.82 389.083 C 1375.033 388.536 1375.333 388.06 1375.72 387.653 C 1376.107 387.246 1376.567 386.93 1377.1 386.703 C 1377.627 386.476 1378.203 386.363 1378.83 386.363 C 1379.537 386.363 1380.173 386.503 1380.74 386.783 C 1381.3 387.07 1381.757 387.466 1382.11 387.973 L 1381.26 388.813 L 1381.12 388.943 L 1381.03 388.843 C 1381.03 388.743 1381.007 388.65 1380.96 388.563 C 1380.92 388.476 1380.823 388.356 1380.67 388.203 C 1380.39 387.95 1380.093 387.773 1379.78 387.673 C 1379.46 387.573 1379.09 387.523 1378.67 387.523 C 1378.303 387.523 1377.957 387.596 1377.63 387.743 C 1377.303 387.896 1377.01 388.116 1376.75 388.403 C 1376.49 388.69 1376.283 389.033 1376.13 389.433 C 1375.977 389.84 1375.9 390.29 1375.9 390.783 C 1375.9 391.276 1375.977 391.73 1376.13 392.143 C 1376.283 392.556 1376.49 392.916 1376.75 393.223 C 1377.017 393.523 1377.337 393.76 1377.71 393.933 C 1378.083 394.1 1378.487 394.183 1378.92 394.183 C 1379.213 394.183 1379.493 394.143 1379.76 394.063 C 1380.027 393.983 1380.28 393.863 1380.52 393.703 C 1380.76 393.543 1380.98 393.35 1381.18 393.123 L 1381.98 394.053 C 1381.547 394.513 1381.07 394.856 1380.55 395.083 C 1380.023 395.31 1379.457 395.423 1378.85 395.423 ZM 1388.1 395.403 C 1387.467 395.403 1386.89 395.306 1386.37 395.113 C 1385.85 394.913 1385.403 394.623 1385.03 394.243 C 1384.657 393.863 1384.367 393.393 1384.16 392.833 C 1383.96 392.266 1383.86 391.623 1383.86 390.903 C 1383.86 390.163 1383.963 389.51 1384.17 388.943 C 1384.383 388.37 1384.67 387.893 1385.03 387.513 C 1385.39 387.126 1385.813 386.83 1386.3 386.623 C 1386.787 386.423 1387.303 386.323 1387.85 386.323 C 1388.343 386.323 1388.807 386.406 1389.24 386.573 C 1389.667 386.733 1390.04 386.983 1390.36 387.323 C 1390.673 387.656 1390.923 388.083 1391.11 388.603 C 1391.297 389.123 1391.39 389.736 1391.39 390.443 C 1391.39 390.543 1391.387 390.646 1391.38 390.753 C 1391.373 390.866 1391.363 390.973 1391.35 391.073 L 1385.17 391.073 C 1385.197 391.626 1385.293 392.11 1385.46 392.523 C 1385.62 392.936 1385.833 393.273 1386.1 393.533 C 1386.367 393.793 1386.673 393.986 1387.02 394.113 C 1387.373 394.24 1387.747 394.303 1388.14 394.303 C 1388.44 394.303 1388.723 394.266 1388.99 394.193 C 1389.257 394.126 1389.507 394.02 1389.74 393.873 C 1389.973 393.726 1390.187 393.546 1390.38 393.333 L 1391.14 394.073 C 1390.9 394.366 1390.623 394.613 1390.31 394.813 C 1390.003 395.013 1389.667 395.163 1389.3 395.263 C 1388.927 395.356 1388.527 395.403 1388.1 395.403 Z M 1385.23 390.003 L 1390 390.003 C 1390 389.603 1389.947 389.24 1389.84 388.913 C 1389.733 388.593 1389.58 388.316 1389.38 388.083 C 1389.187 387.843 1388.953 387.663 1388.68 387.543 C 1388.407 387.423 1388.1 387.363 1387.76 387.363 C 1387.453 387.363 1387.163 387.416 1386.89 387.523 C 1386.617 387.623 1386.367 387.783 1386.14 388.003 C 1385.913 388.223 1385.72 388.5 1385.56 388.833 C 1385.4 389.16 1385.29 389.55 1385.23 390.003 ZM 1397.2 395.403 C 1396.72 395.403 1396.26 395.353 1395.82 395.253 C 1395.387 395.153 1394.977 395 1394.59 394.793 C 1394.203 394.593 1393.843 394.34 1393.51 394.033 L 1394.27 392.743 L 1394.39 392.573 L 1394.5 392.653 C 1394.527 392.753 1394.557 392.856 1394.59 392.963 C 1394.617 393.07 1394.7 393.2 1394.84 393.353 C 1395.107 393.62 1395.427 393.836 1395.8 394.003 C 1396.173 394.176 1396.653 394.263 1397.24 394.263 C 1397.707 394.263 1398.1 394.206 1398.42 394.093 C 1398.747 393.98 1399 393.816 1399.18 393.603 C 1399.353 393.396 1399.44 393.153 1399.44 392.873 C 1399.44 392.686 1399.403 392.52 1399.33 392.373 C 1399.25 392.226 1399.127 392.09 1398.96 391.963 C 1398.787 391.836 1398.56 391.71 1398.28 391.583 C 1398 391.456 1397.66 391.33 1397.26 391.203 C 1396.6 391.016 1396.023 390.796 1395.53 390.543 C 1395.037 390.29 1394.657 389.993 1394.39 389.653 C 1394.123 389.32 1393.99 388.936 1393.99 388.503 C 1393.99 388.063 1394.11 387.68 1394.35 387.353 C 1394.59 387.033 1394.947 386.78 1395.42 386.593 C 1395.9 386.413 1396.487 386.323 1397.18 386.323 C 1397.587 386.323 1397.953 386.35 1398.28 386.403 C 1398.613 386.463 1398.917 386.55 1399.19 386.663 C 1399.47 386.776 1399.727 386.92 1399.96 387.093 C 1400.193 387.26 1400.42 387.46 1400.64 387.693 L 1399.86 388.643 L 1399.73 388.793 L 1399.63 388.693 C 1399.617 388.593 1399.59 388.496 1399.55 388.403 C 1399.503 388.31 1399.41 388.193 1399.27 388.053 C 1398.977 387.826 1398.647 387.65 1398.28 387.523 C 1397.913 387.403 1397.56 387.343 1397.22 387.343 C 1396.713 387.343 1396.277 387.433 1395.91 387.613 C 1395.543 387.793 1395.36 388.066 1395.36 388.433 C 1395.36 388.62 1395.427 388.806 1395.56 388.993 C 1395.687 389.173 1395.93 389.356 1396.29 389.543 C 1396.643 389.723 1397.15 389.91 1397.81 390.103 C 1398.53 390.33 1399.11 390.56 1399.55 390.793 C 1399.983 391.026 1400.3 391.296 1400.5 391.603 C 1400.693 391.91 1400.79 392.27 1400.79 392.683 C 1400.79 393.17 1400.66 393.62 1400.4 394.033 C 1400.14 394.453 1399.743 394.786 1399.21 395.033 C 1398.677 395.28 1398.007 395.403 1397.2 395.403 ZM 1406.7 395.403 C 1406.22 395.403 1405.76 395.353 1405.32 395.253 C 1404.887 395.153 1404.477 395 1404.09 394.793 C 1403.703 394.593 1403.343 394.34 1403.01 394.033 L 1403.77 392.743 L 1403.89 392.573 L 1404 392.653 C 1404.027 392.753 1404.057 392.856 1404.09 392.963 C 1404.117 393.07 1404.2 393.2 1404.34 393.353 C 1404.607 393.62 1404.927 393.836 1405.3 394.003 C 1405.673 394.176 1406.153 394.263 1406.74 394.263 C 1407.207 394.263 1407.6 394.206 1407.92 394.093 C 1408.247 393.98 1408.5 393.816 1408.68 393.603 C 1408.853 393.396 1408.94 393.153 1408.94 392.873 C 1408.94 392.686 1408.903 392.52 1408.83 392.373 C 1408.75 392.226 1408.627 392.09 1408.46 391.963 C 1408.287 391.836 1408.06 391.71 1407.78 391.583 C 1407.5 391.456 1407.16 391.33 1406.76 391.203 C 1406.1 391.016 1405.523 390.796 1405.03 390.543 C 1404.537 390.29 1404.157 389.993 1403.89 389.653 C 1403.623 389.32 1403.49 388.936 1403.49 388.503 C 1403.49 388.063 1403.61 387.68 1403.85 387.353 C 1404.09 387.033 1404.447 386.78 1404.92 386.593 C 1405.4 386.413 1405.987 386.323 1406.68 386.323 C 1407.087 386.323 1407.453 386.35 1407.78 386.403 C 1408.113 386.463 1408.417 386.55 1408.69 386.663 C 1408.97 386.776 1409.227 386.92 1409.46 387.093 C 1409.693 387.26 1409.92 387.46 1410.14 387.693 L 1409.36 388.643 L 1409.23 388.793 L 1409.13 388.693 C 1409.117 388.593 1409.09 388.496 1409.05 388.403 C 1409.003 388.31 1408.91 388.193 1408.77 388.053 C 1408.477 387.826 1408.147 387.65 1407.78 387.523 C 1407.413 387.403 1407.06 387.343 1406.72 387.343 C 1406.213 387.343 1405.777 387.433 1405.41 387.613 C 1405.043 387.793 1404.86 388.066 1404.86 388.433 C 1404.86 388.62 1404.927 388.806 1405.06 388.993 C 1405.187 389.173 1405.43 389.356 1405.79 389.543 C 1406.143 389.723 1406.65 389.91 1407.31 390.103 C 1408.03 390.33 1408.61 390.56 1409.05 390.793 C 1409.483 391.026 1409.8 391.296 1410 391.603 C 1410.193 391.91 1410.29 392.27 1410.29 392.683 C 1410.29 393.17 1410.16 393.62 1409.9 394.033 C 1409.64 394.453 1409.243 394.786 1408.71 395.033 C 1408.177 395.28 1407.507 395.403 1406.7 395.403 ZM 1413.99 382.583 L 1415.51 382.583 C 1415.51 383.343 1415.507 383.95 1415.5 384.403 C 1415.487 384.856 1415.463 385.24 1415.43 385.553 C 1415.397 385.86 1415.363 386.156 1415.33 386.443 C 1415.29 386.73 1415.25 387.076 1415.21 387.483 L 1414.3 387.483 C 1414.26 387.076 1414.22 386.73 1414.18 386.443 C 1414.147 386.156 1414.113 385.863 1414.08 385.563 C 1414.047 385.256 1414.023 384.873 1414.01 384.413 C 1413.997 383.953 1413.99 383.343 1413.99 382.583 Z M 1416.85 382.583 L 1418.36 382.583 C 1418.36 383.343 1418.357 383.95 1418.35 384.403 C 1418.337 384.856 1418.313 385.24 1418.28 385.553 C 1418.247 385.86 1418.213 386.156 1418.18 386.443 C 1418.14 386.73 1418.1 387.076 1418.06 387.483 L 1417.15 387.483 C 1417.11 387.076 1417.07 386.73 1417.03 386.443 C 1416.997 386.156 1416.963 385.863 1416.93 385.563 C 1416.897 385.256 1416.873 384.873 1416.86 384.413 C 1416.853 383.953 1416.85 383.343 1416.85 382.583 Z" transform="matrix(1, 0, 0, 1, -865.2362060546875, -342.1672058105469)" style="fill: url(#handler-border); white-space: pre;"/>
  <path d="M 1305.77 369.171 C 1305.477 369.171 1305.217 369.064 1304.99 368.851 C 1304.763 368.631 1304.65 368.378 1304.65 368.091 C 1304.65 367.784 1304.763 367.524 1304.99 367.311 C 1305.217 367.091 1305.477 366.981 1305.77 366.981 C 1306.063 366.981 1306.327 367.091 1306.56 367.311 C 1306.793 367.524 1306.91 367.784 1306.91 368.091 C 1306.91 368.378 1306.797 368.631 1306.57 368.851 C 1306.343 369.064 1306.077 369.171 1305.77 369.171 Z M 1305.77 375.231 C 1305.457 375.231 1305.19 375.128 1304.97 374.921 C 1304.757 374.708 1304.65 374.451 1304.65 374.151 C 1304.65 373.844 1304.763 373.584 1304.99 373.371 C 1305.217 373.151 1305.477 373.041 1305.77 373.041 C 1306.063 373.041 1306.327 373.151 1306.56 373.371 C 1306.793 373.584 1306.91 373.844 1306.91 374.151 C 1306.91 374.438 1306.8 374.691 1306.58 374.911 C 1306.36 375.124 1306.09 375.231 1305.77 375.231 Z" transform="matrix(1, 0, 0, 1, -858.7294921875, -340.9730529785156)" style="fill: rgb(51, 51, 51); white-space: pre;"/>
  <path d="M 1315.27 388.171 C 1314.977 388.171 1314.717 388.064 1314.49 387.851 C 1314.263 387.631 1314.15 387.378 1314.15 387.091 C 1314.15 386.784 1314.263 386.524 1314.49 386.311 C 1314.717 386.091 1314.977 385.981 1315.27 385.981 C 1315.563 385.981 1315.827 386.091 1316.06 386.311 C 1316.293 386.524 1316.41 386.784 1316.41 387.091 C 1316.41 387.378 1316.297 387.631 1316.07 387.851 C 1315.843 388.064 1315.577 388.171 1315.27 388.171 Z M 1315.27 394.231 C 1314.957 394.231 1314.69 394.128 1314.47 393.921 C 1314.257 393.708 1314.15 393.451 1314.15 393.151 C 1314.15 392.844 1314.263 392.584 1314.49 392.371 C 1314.717 392.151 1314.977 392.041 1315.27 392.041 C 1315.563 392.041 1315.827 392.151 1316.06 392.371 C 1316.293 392.584 1316.41 392.844 1316.41 393.151 C 1316.41 393.438 1316.3 393.691 1316.08 393.911 C 1315.86 394.124 1315.59 394.231 1315.27 394.231 Z" transform="matrix(1, 0, 0, 1, -858.7294921875, -340.9730529785156)" style="fill: rgb(51, 51, 51); white-space: pre;"/>
  <path d="M 1324.77 407.171 C 1324.477 407.171 1324.217 407.064 1323.99 406.851 C 1323.763 406.631 1323.65 406.378 1323.65 406.091 C 1323.65 405.784 1323.763 405.524 1323.99 405.311 C 1324.217 405.091 1324.477 404.981 1324.77 404.981 C 1325.063 404.981 1325.327 405.091 1325.56 405.311 C 1325.793 405.524 1325.91 405.784 1325.91 406.091 C 1325.91 406.378 1325.797 406.631 1325.57 406.851 C 1325.343 407.064 1325.077 407.171 1324.77 407.171 Z M 1324.77 413.231 C 1324.457 413.231 1324.19 413.128 1323.97 412.921 C 1323.757 412.708 1323.65 412.451 1323.65 412.151 C 1323.65 411.844 1323.763 411.584 1323.99 411.371 C 1324.217 411.151 1324.477 411.041 1324.77 411.041 C 1325.063 411.041 1325.327 411.151 1325.56 411.371 C 1325.793 411.584 1325.91 411.844 1325.91 412.151 C 1325.91 412.438 1325.8 412.691 1325.58 412.911 C 1325.36 413.124 1325.09 413.231 1324.77 413.231 Z" transform="matrix(1, 0, 0, 1, -858.7294921875, -340.9730529785156)" style="fill: rgb(51, 51, 51); white-space: pre;"/>
  <path d="M 475.571 71.797 L 475.571 64.197 L 473.691 64.197 L 473.691 63.117 L 475.571 63.117 L 475.571 62.397 C 475.571 61.624 475.708 60.99 475.981 60.497 C 476.254 59.997 476.631 59.63 477.111 59.397 C 477.591 59.164 478.141 59.047 478.761 59.047 C 479.308 59.047 479.818 59.147 480.291 59.347 C 480.764 59.54 481.161 59.84 481.481 60.247 L 480.761 61.257 L 480.641 61.407 L 480.531 61.327 C 480.518 61.227 480.491 61.127 480.451 61.027 C 480.411 60.927 480.321 60.8 480.181 60.647 C 479.981 60.467 479.781 60.34 479.581 60.267 C 479.374 60.187 479.114 60.147 478.801 60.147 C 478.434 60.147 478.104 60.22 477.811 60.367 C 477.518 60.514 477.291 60.747 477.131 61.067 C 476.964 61.394 476.881 61.837 476.881 62.397 L 476.881 63.117 L 479.731 63.117 L 479.731 64.197 L 476.881 64.197 L 476.881 71.797 L 475.571 71.797 ZM 486.001 72.007 C 485.014 72.007 484.254 71.78 483.721 71.327 C 483.188 70.88 482.921 70.307 482.921 69.607 C 482.921 69.14 483.034 68.72 483.261 68.347 C 483.488 67.974 483.801 67.657 484.201 67.397 C 484.601 67.137 485.068 66.937 485.601 66.797 C 486.134 66.657 486.698 66.587 487.291 66.587 C 487.504 66.587 487.724 66.59 487.951 66.597 C 488.171 66.604 488.404 66.617 488.651 66.637 C 488.898 66.657 489.154 66.687 489.421 66.727 L 489.461 67.767 C 489.234 67.734 489.001 67.707 488.761 67.687 C 488.528 67.667 488.298 67.65 488.071 67.637 C 487.844 67.624 487.624 67.617 487.411 67.617 C 486.951 67.617 486.531 67.654 486.151 67.727 C 485.771 67.807 485.441 67.924 485.161 68.077 C 484.881 68.224 484.668 68.42 484.521 68.667 C 484.368 68.907 484.291 69.197 484.291 69.537 C 484.291 69.804 484.338 70.027 484.431 70.207 C 484.524 70.394 484.654 70.54 484.821 70.647 C 484.988 70.754 485.181 70.834 485.401 70.887 C 485.621 70.934 485.864 70.957 486.131 70.957 C 486.624 70.957 487.064 70.88 487.451 70.727 C 487.838 70.567 488.168 70.334 488.441 70.027 C 488.714 69.727 488.921 69.354 489.061 68.907 C 489.201 68.467 489.271 67.96 489.271 67.387 C 489.271 66.527 489.168 65.857 488.961 65.377 C 488.761 64.897 488.461 64.554 488.061 64.347 C 487.661 64.147 487.151 64.047 486.531 64.047 C 486.111 64.047 485.701 64.127 485.301 64.287 C 484.894 64.44 484.524 64.684 484.191 65.017 L 483.531 64.137 C 483.938 63.73 484.404 63.427 484.931 63.227 C 485.464 63.027 486.031 62.927 486.631 62.927 C 487.198 62.927 487.714 62.997 488.181 63.137 C 488.654 63.27 489.058 63.5 489.391 63.827 C 489.724 64.147 489.984 64.58 490.171 65.127 C 490.358 65.674 490.451 66.357 490.451 67.177 L 490.451 71.797 L 488.961 71.797 L 488.961 70.467 C 488.801 70.787 488.601 71.047 488.361 71.247 C 488.128 71.447 487.878 71.6 487.611 71.707 C 487.344 71.82 487.074 71.897 486.801 71.937 C 486.521 71.984 486.254 72.007 486.001 72.007 ZM 499.491 71.797 L 492.991 71.797 L 492.991 70.697 L 495.561 70.697 L 495.561 60.267 L 493.101 60.267 L 493.101 59.167 L 496.941 59.167 L 496.941 70.697 L 499.491 70.697 L 499.491 71.797 ZM 505.761 71.987 C 505.281 71.987 504.821 71.937 504.381 71.837 C 503.948 71.737 503.538 71.584 503.151 71.377 C 502.764 71.177 502.404 70.924 502.071 70.617 L 502.831 69.327 L 502.951 69.157 L 503.061 69.237 C 503.088 69.337 503.118 69.44 503.151 69.547 C 503.178 69.654 503.261 69.784 503.401 69.937 C 503.668 70.204 503.988 70.42 504.361 70.587 C 504.734 70.76 505.214 70.847 505.801 70.847 C 506.268 70.847 506.661 70.79 506.981 70.677 C 507.308 70.564 507.561 70.4 507.741 70.187 C 507.914 69.98 508.001 69.737 508.001 69.457 C 508.001 69.27 507.964 69.104 507.891 68.957 C 507.811 68.81 507.688 68.674 507.521 68.547 C 507.348 68.42 507.121 68.294 506.841 68.167 C 506.561 68.04 506.221 67.914 505.821 67.787 C 505.161 67.6 504.584 67.38 504.091 67.127 C 503.598 66.874 503.218 66.577 502.951 66.237 C 502.684 65.904 502.551 65.52 502.551 65.087 C 502.551 64.647 502.671 64.264 502.911 63.937 C 503.151 63.617 503.508 63.364 503.981 63.177 C 504.461 62.997 505.048 62.907 505.741 62.907 C 506.148 62.907 506.514 62.934 506.841 62.987 C 507.174 63.047 507.478 63.134 507.751 63.247 C 508.031 63.36 508.288 63.504 508.521 63.677 C 508.754 63.844 508.981 64.044 509.201 64.277 L 508.421 65.227 L 508.291 65.377 L 508.191 65.277 C 508.178 65.177 508.151 65.08 508.111 64.987 C 508.064 64.894 507.971 64.777 507.831 64.637 C 507.538 64.41 507.208 64.234 506.841 64.107 C 506.474 63.987 506.121 63.927 505.781 63.927 C 505.274 63.927 504.838 64.017 504.471 64.197 C 504.104 64.377 503.921 64.65 503.921 65.017 C 503.921 65.204 503.988 65.39 504.121 65.577 C 504.248 65.757 504.491 65.94 504.851 66.127 C 505.204 66.307 505.711 66.494 506.371 66.687 C 507.091 66.914 507.671 67.144 508.111 67.377 C 508.544 67.61 508.861 67.88 509.061 68.187 C 509.254 68.494 509.351 68.854 509.351 69.267 C 509.351 69.754 509.221 70.204 508.961 70.617 C 508.701 71.037 508.304 71.37 507.771 71.617 C 507.238 71.864 506.568 71.987 505.761 71.987 ZM 515.661 71.987 C 515.028 71.987 514.451 71.89 513.931 71.697 C 513.411 71.497 512.964 71.207 512.591 70.827 C 512.218 70.447 511.928 69.977 511.721 69.417 C 511.521 68.85 511.421 68.207 511.421 67.487 C 511.421 66.747 511.524 66.094 511.731 65.527 C 511.944 64.954 512.231 64.477 512.591 64.097 C 512.951 63.71 513.374 63.414 513.861 63.207 C 514.348 63.007 514.864 62.907 515.411 62.907 C 515.904 62.907 516.368 62.99 516.801 63.157 C 517.228 63.317 517.601 63.567 517.921 63.907 C 518.234 64.24 518.484 64.667 518.671 65.187 C 518.858 65.707 518.951 66.32 518.951 67.027 C 518.951 67.127 518.948 67.23 518.941 67.337 C 518.934 67.45 518.924 67.557 518.911 67.657 L 512.731 67.657 C 512.758 68.21 512.854 68.694 513.021 69.107 C 513.181 69.52 513.394 69.857 513.661 70.117 C 513.928 70.377 514.234 70.57 514.581 70.697 C 514.934 70.824 515.308 70.887 515.701 70.887 C 516.001 70.887 516.284 70.85 516.551 70.777 C 516.818 70.71 517.068 70.604 517.301 70.457 C 517.534 70.31 517.748 70.13 517.941 69.917 L 518.701 70.657 C 518.461 70.95 518.184 71.197 517.871 71.397 C 517.564 71.597 517.228 71.747 516.861 71.847 C 516.488 71.94 516.088 71.987 515.661 71.987 Z M 512.791 66.587 L 517.561 66.587 C 517.561 66.187 517.508 65.824 517.401 65.497 C 517.294 65.177 517.141 64.9 516.941 64.667 C 516.748 64.427 516.514 64.247 516.241 64.127 C 515.968 64.007 515.661 63.947 515.321 63.947 C 515.014 63.947 514.724 64 514.451 64.107 C 514.178 64.207 513.928 64.367 513.701 64.587 C 513.474 64.807 513.281 65.084 513.121 65.417 C 512.961 65.744 512.851 66.134 512.791 66.587 Z" transform="matrix(1, 0, 0, 1, 0, 0)" style="fill: url(#api-border); white-space: pre;"/>
</svg>